<?xml version="1.0" encoding="utf-8"?>
<!-- Generator: Adobe Illustrator 22.0.1, SVG Export Plug-In . SVG Version: 6.00 Build 0)  -->
<svg version="1.1" id="Layer_1" xmlns="http://www.w3.org/2000/svg" xmlns:xlink="http://www.w3.org/1999/xlink" x="0px" y="0px"
	 viewBox="0 0 112 187" style="enable-background:new 0 0 112 187;" xml:space="preserve">
<style type="text/css">
	.st0{filter:url(#filter-2);}
	.st1{fill:#FFFFFF;}
	.st2{fill:#C2C2C2;}
	.st3{fill:#F15F57;stroke:#FFFFFF;stroke-width:2;stroke-miterlimit:10;}
	.st4{fill:#F15F57;}
	.st5{fill:#FFFFFF;stroke:#FFFFFF;stroke-width:3.31;}
</style>
<filter  filterUnits="objectBoundingBox" height="113.5%" id="filter-2" width="113.5%" x="-6.7%" y="-4.8%">
	<feOffset  dx="0" dy="2" in="SourceAlpha" result="shadowOffsetOuter1"></feOffset>
	<feGaussianBlur  in="shadowOffsetOuter1" result="shadowBlurOuter1" stdDeviation="2"></feGaussianBlur>
	<feColorMatrix  in="shadowBlurOuter1" type="matrix" values="0 0 0 0 0   0 0 0 0 0   0 0 0 0 0  0 0 0 0.35 0"></feColorMatrix>
</filter>
<desc>Created with Sketch.</desc>
<g id="Camps">
	<g id="Desktop-HD" transform="translate(-127.000000, -556.000000)">
		<g id="camo-modal" transform="translate(131.000000, 556.000000)">
			<g id="camp-icon">
				<g id="Oval">
					<g class="st0">
						<circle id="path-1_2_" cx="52" cy="129" r="52"/>
					</g>
					<g>
						<circle id="path-1_1_" class="st1" cx="52" cy="129" r="52"/>
					</g>
				</g>
				
					<g id="balloon_man" transform="translate(38.500000, 77.000000) rotate(-360.000000) translate(-38.500000, -77.000000) translate(15.000000, 0.000000)">
					<path id="Path_69" class="st2" d="M33,120.9c1,0.6,1.1,1.7,0.7,3.2c-0.5,1.5-1.6,2.6-2.8,1.8c-5.1-3.2-7.6-9.2-6.4-15
						c0.3-1.5,1.1-2.9,2.4-3.7c0.8-0.3,1,0.6,0.8,2C26.8,113.7,28.9,118.4,33,120.9L33,120.9z"/>
					<path id="Path_70" class="st2" d="M40.1,123.1c-1-0.9-2.1,0-2.6,1.6c-0.5,1.6-0.4,3,0.5,3.5c3.5,2.5,6,6.3,6.9,10.6
						c0.3,1.3,0.8,2,1.3,1.6c0.7-1.1,0.9-2.4,0.7-3.6C46.4,131.6,43.9,126.7,40.1,123.1z"/>
					<path id="Path_71" class="st2" d="M41.6,118.4c-1.8,2-4.5,2.3-6,0.8s-1.3-4.5,0.5-6.5c1.8-2,4.5-2.3,6-0.8
						S43.4,116.4,41.6,118.4z"/>
					<path id="Path_72" class="st2" d="M39.1,137.5c-3.9,0.5-7.9,0-11.6-1.5c-0.8,8.6,2.8,17.1,9.5,22.5c0.5,0.5,1.3,0.7,2,0.4
						c0.3-0.3,0.4-0.8,0.2-1.2c-3.4-3.3-5.8-7.6-6.6-12.3c-0.3-1.6,0.2-2.9,0.7-3c0.5-0.1,1.3,1,1.8,2.4c1.5,3.8,4,7.1,7.4,9.5
						c0.4,0.1,0.9-0.1,1.1-0.5c0.3-0.5,0.2-1.1-0.2-1.5C39.6,148.4,38,142.8,39.1,137.5z"/>
					<path id="Path_73" class="st2" d="M38.5,142.5c-4,0.3-7.9-1-10.8-3.6c-0.2-0.2-0.3-0.5-0.3-0.7c0.9-4.7,1.3-9.1,3-13.9
						c0.6-1.6,1.8-3.2,2.5-3.3c2.5-0.3,5,0.3,7,1.7c0.9,1,1.4,2.4,1.1,3.8c-0.5,2.9-2.2-0.2-1.3,15.1c0,0.3-0.2,0.6-0.4,0.7
						C39,142.5,39.7,142.4,38.5,142.5z"/>
					<path id="Path_74" class="st2" d="M26.1,112.9c0.3-0.1,0.6-0.1,1-0.2c-8.3-27.3,7.5-40.3-0.8-67.6c-0.5,0.1-0.9,0.2-1.4,0.3
						C33.3,72.7,17.7,85.6,26.1,112.9z"/>
					<ellipse id="Ellipse_1" class="st3" cx="18.9" cy="24.1" rx="18.9" ry="19.1"/>
					<polygon id="Path_75" class="st4" points="22.8,45.8 26.8,44.9 25.3,43.2 23.4,43.6 					"/>
					<path id="Path_79" class="st5" d="M26.9,10.9c3.9,2.7,3.7,5.9,3.7,5.9c-1.1-2-2.6-3.7-4.5-5c-1.9-1.5-4.2-2.5-6.6-2.7
						C19.6,9.1,22.9,8.1,26.9,10.9z"/>
				</g>
			</g>
		</g>
	</g>
</g>
</svg>
