
<svg viewBox="0 0 112 187" version="1.1" xmlns="http://www.w3.org/2000/svg" xmlns:xlink="http://www.w3.org/1999/xlink">
    <!-- Generator: Sketch 48.1 (47250) - http://www.bohemiancoding.com/sketch -->
    <desc>Created with Sketch.</desc>
    <defs>
        <circle id="path-1" cx="52" cy="129" r="52"></circle>
        <filter x="-6.7%" y="-4.8%" width="113.5%" height="113.5%" filterUnits="objectBoundingBox" id="filter-2">
            <feOffset dx="0" dy="2" in="SourceAlpha" result="shadowOffsetOuter1"></feOffset>
            <feGaussianBlur stdDeviation="2" in="shadowOffsetOuter1" result="shadowBlurOuter1"></feGaussianBlur>
            <feColorMatrix values="0 0 0 0 0   0 0 0 0 0   0 0 0 0 0  0 0 0 0.35 0" type="matrix" in="shadowBlurOuter1"></feColorMatrix>
        </filter>
    </defs>
    <g id="Camps" stroke="none" stroke-width="1" fill="none" fill-rule="evenodd">
        <g id="Desktop-HD" transform="translate(-127.000000, -556.000000)">
            <g id="camo-modal" transform="translate(131.000000, 556.000000)">
                <g id="camp-icon">
                    <g id="Oval">
                        <use fill="black" fill-opacity="1" filter="url(#filter-2)" xlink:href="#path-1"></use>
                        <use fill="#FFFFFF" fill-rule="evenodd" xlink:href="#path-1"></use>
                    </g>
                    <g id="balloon_man" transform="translate(38.500000, 77.000000) rotate(-360.000000) translate(-38.500000, -77.000000) translate(15.000000, 0.000000)" fill-rule="nonzero">
                        <path d="M33.0197777,115.855357 C34.0014249,116.424361 34.1663558,117.550077 33.6803831,119.040202 C33.2102861,120.532961 32.0928135,121.625309 30.8333416,120.822731 C25.7795211,117.623537 23.2393368,111.646262 24.4521937,105.807334 C24.7229422,104.295469 25.5826511,102.951313 26.8441319,102.067534 C27.622041,101.761079 27.8257791,102.682199 27.622041,104.053781 C26.7580707,108.725479 28.9136359,113.437622 33.0206597,115.855357 L33.0197777,115.855357 Z" id="Path_69" fill="#C2C2C2"></path>
                        <path d="M40.067197,118.145726 C39.1013077,117.275714 38.0092134,118.160312 37.506076,119.715866 C36.9886353,121.267987 37.1417641,122.670817 37.9957515,123.226801 C41.5447623,125.736546 44.0262119,129.52755 44.9378703,133.832537 C45.2601139,135.088649 45.7632513,135.873719 46.239465,135.462737 C46.8938524,134.38008 47.1377175,133.090879 46.9251791,131.837687 C46.3613477,126.571019 43.9209457,121.698756 40.067197,118.145726 Z" id="Path_70" fill="#C2C2C2"></path>
                        <path d="M41.6007747,113.422306 C39.813132,115.423254 37.1399642,115.752105 35.6151845,114.174836 C34.0904047,112.597568 34.3052362,109.702284 36.0806527,107.704816 C37.8560693,105.707348 40.5414632,105.375017 42.066243,106.952286 C43.5910228,108.529554 43.3735714,111.428318 41.6007747,113.422306 Z" id="Path_71" fill="#C2C2C2"></path>
                        <path d="M39.1088054,132.468324 C35.181022,132.93543 31.1991594,132.419249 27.5183131,130.965812 C26.7565876,139.588048 30.3110941,148.02684 37.0030793,153.483699 C37.5298395,153.994764 38.3092897,154.141341 38.9845359,153.856315 C39.3275146,153.563189 39.4259868,153.072366 39.2227906,152.668762 C35.7876184,149.363505 33.4651283,145.064384 32.5790834,140.370711 C32.3082615,138.795913 32.7367772,137.464649 33.277564,137.406993 C33.8183507,137.349336 34.5322579,138.452555 35.0601892,139.783819 C36.5238395,143.623797 39.1026995,146.933667 42.4623692,149.284238 C42.891367,149.36565 43.3279027,149.185936 43.57651,148.825567 C43.8444978,148.337156 43.7698363,147.731168 43.3913912,147.323055 C39.5656221,143.410395 37.9562363,137.828021 39.1088054,132.468324 Z" id="Path_72" fill="#C2C2C2"></path>
                        <path d="M38.523742,137.49779 C34.5617792,137.825255 30.6409465,136.508062 27.706891,133.863897 C27.4819612,133.685577 27.375779,133.399134 27.4311023,133.119917 C28.3038513,128.441012 28.7088068,124.034756 30.4508138,119.197594 C31.0617381,117.552236 32.2076575,116.007509 32.9617127,115.906879 C35.42531,115.596702 37.9164501,116.220832 39.9306134,117.652867 C40.872708,118.675771 41.2903731,120.066057 41.0651871,121.429535 C40.5851751,124.301385 38.8152402,121.271278 39.8023193,136.524165 C39.8162049,136.834946 39.6459962,137.125472 39.3659448,137.269005 C38.9871717,137.452205 39.7420996,137.4092 38.523742,137.49779 Z" id="Path_73" fill="#C2C2C2"></path>
                        <path d="M26.0816427,107.931624 C26.4014178,107.873424 26.7211929,107.801326 27.0427153,107.743995 C18.742543,80.4300216 34.5285971,67.4557975 26.2284247,40.1452991 C25.7775943,40.2321646 25.3127847,40.3190301 24.8619543,40.419794 C33.3045401,67.6998894 17.6512888,80.6489225 26.0816427,107.931624 Z" id="Path_74" fill="#C2C2C2"></path>
                        <ellipse id="Ellipse_1" fill="#F15F57" cx="18.9305556" cy="19.0854701" rx="18.9305556" ry="19.0854701"></ellipse>
                        <polygon id="Path_75" fill="#F15F57" points="22.8472222 40.8034188 26.7638889 39.8882694 25.314027 38.1709402 23.4321729 38.6133257"></polygon>
                        <path d="M26.9377285,5.93108064 C30.789248,8.63722663 30.6802427,11.8461538 30.6802427,11.8461538 C29.6011596,9.84630785 28.067827,8.13081485 26.2049709,6.83921835 C24.3018348,5.31837476 22.0026397,4.38205688 19.5833333,4.14264086 C19.5833333,4.14264086 22.879445,3.07966741 26.9377285,5.93108064 Z" id="Path_79" stroke="#FFFFFF" stroke-width="3.31" fill="#FFFFFF"></path>
                    </g>
                </g>
            </g>
        </g>
    </g>
</svg>