<svg xmlns="http://www.w3.org/2000/svg" viewBox="3610.5 4438.937 153 100.09">
  <defs>
    <style>
      .cls-1 {
        fill: none;
        stroke: #f35d54;
        stroke-width: 4px;
      }
    </style>
  </defs>
  <g id="Group_337" data-name="Group 337" transform="translate(1990 2469)">
    <path id="mbri-hearth-bold" class="cls-1" d="M13.345,2A13.3,13.3,0,0,0,4.077,6.075,13.579,13.579,0,0,0,0,15.347,19.607,19.607,0,0,0,3.525,26.482a38.7,38.7,0,0,0,8.161,8.149,98.163,98.163,0,0,0,12.45,8.3,1.016,1.016,0,0,0,1,0,97.949,97.949,0,0,0,12.434-8.3,38.7,38.7,0,0,0,8.161-8.149,19.623,19.623,0,0,0,3.542-11.136,13.6,13.6,0,0,0-4.106-9.272A13.423,13.423,0,0,0,35.909,2a14.558,14.558,0,0,0-6.981,1.642,13.417,13.417,0,0,0-4.291,4.168,13.522,13.522,0,0,0-4.311-4.168A14.46,14.46,0,0,0,13.345,2Zm0,2.053a12.39,12.39,0,0,1,6,1.4,11.536,11.536,0,0,1,4.4,4.25,1.027,1.027,0,0,0,1.772,0,11.477,11.477,0,0,1,4.383-4.25,12.549,12.549,0,0,1,6-1.4,11.54,11.54,0,0,1,7.8,3.466,11.781,11.781,0,0,1,3.511,7.826,17.6,17.6,0,0,1-3.176,9.966A36.929,36.929,0,0,1,36.3,33.02,95.852,95.852,0,0,1,24.637,40.8a95.958,95.958,0,0,1-11.684-7.791,36.929,36.929,0,0,1-7.742-7.707,17.579,17.579,0,0,1-3.158-9.96A11.754,11.754,0,0,1,5.543,7.52a11.335,11.335,0,0,1,7.8-3.466Z" transform="translate(1622.5 1969.938)"/>
    <path id="mbri-hearth-bold-2" data-name="mbri-hearth-bold" class="cls-1" d="M6.5,2A6.479,6.479,0,0,0,1.986,3.984,6.614,6.614,0,0,0,0,8.5a9.55,9.55,0,0,0,1.717,5.424,18.85,18.85,0,0,0,3.975,3.969,47.812,47.812,0,0,0,6.064,4.043.5.5,0,0,0,.488,0A47.708,47.708,0,0,0,18.3,17.893a18.85,18.85,0,0,0,3.975-3.969A9.558,9.558,0,0,0,24,8.5a6.623,6.623,0,0,0-2-4.516A6.538,6.538,0,0,0,17.49,2a7.091,7.091,0,0,0-3.4.8A6.535,6.535,0,0,0,12,4.83,6.586,6.586,0,0,0,9.9,2.8,7.043,7.043,0,0,0,6.5,2Zm0,1a6.035,6.035,0,0,1,2.924.682,5.619,5.619,0,0,1,2.145,2.07.5.5,0,0,0,.863,0,5.59,5.59,0,0,1,2.135-2.07A6.112,6.112,0,0,1,17.49,3a5.621,5.621,0,0,1,3.8,1.688A5.738,5.738,0,0,1,23,8.5a8.573,8.573,0,0,1-1.547,4.854,17.987,17.987,0,0,1-3.771,3.754A46.686,46.686,0,0,1,12,20.9a46.739,46.739,0,0,1-5.691-3.795,17.987,17.987,0,0,1-3.771-3.754A8.562,8.562,0,0,1,1,8.5,5.725,5.725,0,0,1,2.7,4.688,5.521,5.521,0,0,1,6.5,3Z" transform="translate(1747.5 2046.001)"/>
  </g>
</svg>
