<svg xmlns="http://www.w3.org/2000/svg" viewBox="2110.5 3083 28 24.027">
  <defs>
    <style>
      .cls-1 {
        fill: none;
        stroke: #f35d54;
        stroke-width: 2px;
      }
    </style>
  </defs>
  <path id="mbri-hearth-bold" class="cls-1" d="M6.5,2A6.479,6.479,0,0,0,1.986,3.984,6.614,6.614,0,0,0,0,8.5a9.55,9.55,0,0,0,1.717,5.424,18.85,18.85,0,0,0,3.975,3.969,47.812,47.812,0,0,0,6.064,4.043.5.5,0,0,0,.488,0A47.708,47.708,0,0,0,18.3,17.893a18.85,18.85,0,0,0,3.975-3.969A9.558,9.558,0,0,0,24,8.5a6.623,6.623,0,0,0-2-4.516A6.538,6.538,0,0,0,17.49,2a7.091,7.091,0,0,0-3.4.8A6.535,6.535,0,0,0,12,4.83,6.586,6.586,0,0,0,9.9,2.8,7.043,7.043,0,0,0,6.5,2Zm0,1a6.035,6.035,0,0,1,2.924.682,5.619,5.619,0,0,1,2.145,2.07.5.5,0,0,0,.863,0,5.59,5.59,0,0,1,2.135-2.07A6.112,6.112,0,0,1,17.49,3a5.621,5.621,0,0,1,3.8,1.688A5.738,5.738,0,0,1,23,8.5a8.573,8.573,0,0,1-1.547,4.854,17.987,17.987,0,0,1-3.771,3.754A46.686,46.686,0,0,1,12,20.9a46.739,46.739,0,0,1-5.691-3.795,17.987,17.987,0,0,1-3.771-3.754A8.562,8.562,0,0,1,1,8.5,5.725,5.725,0,0,1,2.7,4.688,5.521,5.521,0,0,1,6.5,3Z" transform="translate(2112.5 3083.001)"/>
</svg>
