<?xml version="1.0" encoding="utf-8"?>
<!-- Generator: Adobe Illustrator 22.0.1, SVG Export Plug-In . SVG Version: 6.00 Build 0)  -->
<svg version="1.1" id="Layer_1" xmlns="http://www.w3.org/2000/svg" xmlns:xlink="http://www.w3.org/1999/xlink" x="0px" y="0px"
	 viewBox="0 0 257.5 143.2" style="enable-background:new 0 0 257.5 143.2;" xml:space="preserve">
<style type="text/css">
	.st0{opacity:0.5;fill:#FFFFFF;enable-background:new    ;}
	.st1{fill:#6D6E71;}
	.st2{fill:#FFFFFF;}
	.st3{fill:#2775BB;}
	.st4{fill:#FED115;}
	.st5{opacity:0.5;}
	.st6{fill:#F4F1ED;}
</style>
<g>
	<g transform="translate(-775 2334)">
		<path class="st0" d="M992-2251.5c0.1,2.4-0.6,4.7-2,6.7c-1,1.3-2.3,2.2-3.9,2.6c-1,0.3-2.1,0.4-3.1,0.4c-2,0.1-3.9-0.5-5.5-1.6
			c-1.6-1.2-3-2.8-4-4.6c-0.7-1.5,0-2.4-0.1-4.3l1-4.7l4.3,4c0.2,2.2,0.8,4.1,1.8,5c0.7,0.7,1.4,0.7,2.3,0.6c1.2,0,2.2-0.6,2.7-1.7
			c0.5-0.6,0.8-1.4,0.8-2.2c0-1.6-0.7-3.1-2.1-4.6c-1.1-1.1-2.6-2.8-4.8-4.9c-1.9-1.8-3.4-3.3-4.1-4.7c-0.8-1.6-1.3-3.4-1.2-5.2
			c0-3.4,0.3-7.3,2.6-9c1.4-1,4-0.3,6-0.3c2,0,0.5-2,2.1-1.5c1.5,0.5,5,4.5,5.6,5.8c0.7,1.3,1.2,2.8,1.3,4.3l-5.2,0.9
			c0,0-4.5-4.3-4.5-4.3s1.7-0.3,0.8-0.2c-1,0-1.9,0.6-2.4,1.4c-0.5,0.8-0.7,1.8-0.7,2.7c0,1.7,0.7,3.4,2.2,5.2
			c0.6,0.7,0.4,0.2,1.5,1.1c1.3,1.1,3.2,3.1,3.6,3.6c1.3,1.2,2.3,2.6,3.2,4.1c0.3,0.6,0.6,1.2,0.9,1.8
			C991.7-2254,992-2252.8,992-2251.5L992-2251.5z"/>
		<path class="st1" d="M990.4-2253.4c0.1,2.4-0.6,4.7-2,6.7c-1,1.3-2.3,2.2-3.9,2.6c-1,0.3-2.1,0.4-3.1,0.4c-2,0.1-3.9-0.5-5.5-1.6
			c-1.3-0.9-2.2-2.2-2.9-3.6c-0.7-1.7-1.2-3.5-1.2-5.3l2.7-2.9l2.7,2.5c0.2,2.2,0.8,3.7,1.7,4.7c0.6,0.7,1.4,1.1,2.3,1
			c1.2,0,2.4-0.7,2.9-1.8c0.4-0.8,0.6-1.6,0.6-2.5c0.1-1.7-0.6-3.4-1.7-4.6c-1.1-1.1-3.1-2.6-5.4-4.7c-1.6-1.4-2.9-3-4-4.9
			c-0.8-1.6-1.3-3.4-1.2-5.2c0-3.4,1.1-6,3.4-7.7c1.5-1.1,3.4-1.6,5.2-1.6c2,0,2.5-0.6,4,0.3c1.5,1.1,2.8,2.4,3.9,3.9
			c0.7,1.3,1.1,2.8,1.2,4.3l-5.4,1c0,0-2.6-2.5-2.6-2.5s1.7-0.6,1.3-1.1c-0.6-0.6-1.4-1-2.2-0.9c-1,0-1.9,0.5-2.4,1.4
			c-0.5,0.8-0.7,1.8-0.7,2.7c0,1.7,1.1,3.4,2.6,5.2c0.8,0.9,1.6,1.7,2.5,2.4c1.3,1.1,2.2,1.9,2.6,2.3c1.3,1.2,2.3,2.6,3.2,4.1
			c0.3,0.6,0.6,1.2,0.9,1.8C990.3-2255.8,990.5-2254.6,990.4-2253.4L990.4-2253.4z"/>
		<path class="st2" d="M987.7-2256.5c-0.1-0.5-0.2-1.1-0.3-1.6c-0.1-0.4-0.3-0.9-0.5-1.3c0-0.1-0.1-0.2-0.1-0.2
			c-0.2-0.5-0.5-1-0.8-1.5c0,0,0,0,0-0.1c-0.3-0.5-0.7-1.1-1-1.6c-0.4-0.5-0.8-1-1.3-1.6c-0.3-0.3-0.6-0.6-0.9-0.9
			c-0.2-0.2-0.4-0.4-0.7-0.7c-0.5-0.4-1.1-0.9-1.8-1.6c0,0,0,0-0.1,0c-0.7-0.6-1.2-1.1-1.7-1.5c-0.3-0.3-0.6-0.6-0.8-0.9
			c-0.2-0.2-0.4-0.5-0.6-0.7c-0.4-0.5-0.7-1-0.9-1.6c-0.2-0.5-0.4-1-0.6-1.6c-0.1-0.4-0.2-0.9-0.2-1.4c0-0.1,0-0.1,0-0.2
			c0-0.5,0.1-1.1,0.2-1.6c0.1-0.3,0.2-0.7,0.4-0.9c0.1-0.2,0.3-0.4,0.5-0.6c0.5-0.5,1.2-0.8,1.9-0.8c0.8,0,1.5,0.2,2.1,0.8
			c0.1,0.1,0.1,0.1,0.2,0.2c0.3,0.4,0.6,0.9,0.8,1.4c0.2,0.5,0.3,1,0.4,1.6c0,0.2,0.1,0.4,0.1,0.6l3.3-0.6l2.1-0.4
			c0-0.4-0.1-0.8-0.2-1.2c-0.1-0.5-0.2-1.1-0.4-1.6c-0.2-0.5-0.4-1.1-0.7-1.6c0,0,0,0,0,0c-0.3-0.6-0.7-1.1-1.1-1.6
			c-0.5-0.5-1-1-1.6-1.3c-0.1-0.1-0.3-0.2-0.4-0.2c-1.5-0.8-3.1-1.1-4.7-1.1c-1.6,0-3.1,0.3-4.5,1.1c-0.3,0.1-0.5,0.3-0.7,0.5
			c-0.4,0.3-0.8,0.7-1.2,1.1c-0.4,0.5-0.8,1-1.1,1.6c-0.3,0.5-0.5,1-0.7,1.6c-0.2,0.5-0.3,1-0.3,1.6c-0.1,0.5-0.1,1-0.1,1.6
			c0,0.1,0,0.2,0,0.3c0,0.4,0,0.8,0.1,1.2c0.1,0.5,0.1,1.1,0.3,1.6c0.1,0.5,0.3,1.1,0.5,1.6c0.1,0.3,0.3,0.6,0.4,0.9
			c0.1,0.2,0.3,0.5,0.4,0.7c0.4,0.5,0.7,1.1,1.1,1.6c0.4,0.5,0.9,1,1.4,1.6c0.3,0.3,0.7,0.7,1,1c0.2,0.2,0.4,0.4,0.6,0.6
			c0.6,0.6,1.2,1.1,1.7,1.6c0.6,0.6,1.2,1.1,1.7,1.6c0.4,0.4,0.8,0.7,1.1,1c0.2,0.2,0.3,0.4,0.5,0.5c0.4,0.5,0.7,1,1,1.6
			c0.3,0.5,0.4,1,0.5,1.6c0.1,0.3,0.1,0.6,0.1,0.9c0,0.2,0,0.4,0,0.6c0,0.5-0.2,1.1-0.4,1.6c0,0.1-0.1,0.2-0.1,0.3
			c-0.3,0.5-0.7,1-1.2,1.3c-0.5,0.3-1.1,0.5-1.7,0.5c-0.6,0-1.2-0.2-1.7-0.5c-0.2-0.2-0.4-0.3-0.6-0.5c-0.3-0.3-0.5-0.7-0.7-1
			c-0.3-0.5-0.5-1-0.6-1.6c-0.1-0.5-0.2-1-0.3-1.6c0-0.2,0-0.4-0.1-0.5l-5.4,0.4c0,0.1,0,0.1,0,0.2c0,0.5,0.1,1.1,0.2,1.6
			c0.1,0.5,0.2,1.1,0.3,1.6c0.1,0.5,0.3,1.1,0.5,1.6c0.1,0.1,0.1,0.3,0.2,0.4c0.2,0.4,0.4,0.8,0.6,1.2c0.3,0.6,0.8,1.1,1.2,1.6
			c0.3,0.3,0.7,0.6,1,0.9c0.3,0.2,0.7,0.5,1,0.7c1.4,0.7,2.9,1,4.4,1c1.1,0,2.1-0.1,3.1-0.4c0.5-0.1,0.9-0.3,1.4-0.6
			c0.8-0.4,1.5-0.9,2.1-1.6c0.1-0.2,0.3-0.3,0.4-0.5c0.3-0.3,0.5-0.7,0.7-1.1c0.3-0.5,0.5-1,0.7-1.6c0.2-0.5,0.3-1,0.4-1.6
			c0.1-0.5,0.2-1,0.2-1.6c0-0.3,0-0.6,0-0.9C987.7-2256,987.7-2256.3,987.7-2256.5z"/>
		<path class="st3" d="M983.4-2264.6c-0.4-0.4-1.3-1.2-2.6-2.3c-0.4-0.4-0.8-0.7-1.2-1c0.7,0.7,1.4,1.4,2.2,2.1
			c0.9,0.8,1.6,1.4,2.1,1.8C983.8-2264.3,983.6-2264.5,983.4-2264.6z"/>
		<path class="st4" d="M980.2-2249.6c1.2,0,2.4-0.7,2.9-1.8c0.4-0.8,0.6-1.6,0.6-2.5c0-1.6-0.7-3.1-2.1-4.6
			c-0.2-0.2-0.5-0.5-0.8-0.7c1,1.1,1.5,2.5,1.5,4c0.1,0.9-0.1,1.7-0.6,2.5c-0.6,1.1-1.7,1.8-2.9,1.8c-0.6,0-0.8,0.2-1.3-0.2
			c0.1,0.2,0.2,0.3,0.4,0.5C978.4-2250,979.3-2249.6,980.2-2249.6z"/>
		<path class="st4" d="M975.5-2264.3C975.6-2264.3,975.6-2264.2,975.5-2264.3c-1.1-1.1-2.1-2.4-2.9-3.8c-0.8-1.6-1.3-3.4-1.3-5.2
			c0-3.4,1.1-6,3.4-7.7c1.5-1.1,3.4-1.6,5.2-1.6c1.7-0.1,3.4,0.4,4.8,1.3c0.3,0.2,0.5,0.3,0.8,0.5c-0.4-0.6-0.9-1.1-1.5-1.6
			c-1.6-1.1-3.5-1.6-5.4-1.7c-1.9-0.1-3.7,0.5-5.2,1.6c-2.3,1.7-3.4,4.3-3.4,7.7c0.1,2,0.6,3.9,1.5,5.6
			C972.7-2267.3,974-2265.7,975.5-2264.3L975.5-2264.3z"/>
		<path class="st4" d="M972-2249.7c-0.7-1.7-1.2-3.5-1.2-5.3l3.8-0.3c-0.1-0.4-0.1-0.7-0.2-1.1l-4.7,0.4c0.1,1.8,0.5,3.6,1.2,5.3
			c0.6,1.2,1.5,2.3,2.6,3.1C973-2248.2,972.4-2248.9,972-2249.7z"/>
		<path class="st4" d="M981.7-2277.2c0.5,0.6,0.7,1.4,0.7,2.2l0.8-0.2c-0.2-1-0.3-0.8-0.8-1.4C982.2-2276.9,982-2277.1,981.7-2277.2
			z"/>
		<path class="st3" d="M982.8-2265.3c-0.4-0.4-1.3-1.2-2.6-2.3c-0.4-0.4-0.8-0.7-1.2-1c0.7,0.7,1.4,1.4,2.2,2.1
			c0.9,0.8,1.6,1.4,2.1,1.8C983.2-2264.9,983-2265.1,982.8-2265.3z"/>
		<path class="st4" d="M979.6-2250.2c1.2,0,2.4-0.7,2.9-1.8c0.4-0.8,0.6-1.6,0.6-2.5c0-1.6-0.7-3.1-2.1-4.6
			c-0.2-0.2-0.5-0.5-0.8-0.7c1.1,1.2,1.7,2.7,1.8,4.3c0.1,0.9-0.1,1.7-0.6,2.5c-0.6,1.1-1.7,1.8-2.9,1.8c-0.6,0-1.2-0.1-1.7-0.5
			c0.1,0.2,0.2,0.3,0.4,0.5C977.8-2250.6,978.7-2250.2,979.6-2250.2L979.6-2250.2z"/>
		<path class="st4" d="M974.9-2264.9C974.9-2264.9,975-2264.9,974.9-2264.9c-1.1-1.1-2.1-2.4-2.9-3.8c-0.8-1.6-1.3-3.4-1.2-5.2
			c0-3.4,1.1-6,3.4-7.7c1.5-1.1,3.4-1.6,5.2-1.6c1.8-0.1,3.6,0.4,5.1,1.3c0.3,0.2,0.2,0.3,0.4,0.5c-0.4-0.6-0.9-1.1-1.5-1.6
			c-1.6-0.9-3.3-1.4-5.1-1.3c-1.9-0.1-3.7,0.5-5.2,1.6c-2.3,1.7-3.4,4.3-3.4,7.7c0,1.8,0.4,3.6,1.2,5.2
			C972-2268,973.4-2266.3,974.9-2264.9L974.9-2264.9z"/>
		<path class="st4" d="M971.4-2250.3c-0.7-1.7-1.2-3.5-1.2-5.3l4.5-0.3c-0.1-0.4-0.1-0.7-0.2-1.1l-5.4,0.4c0.1,1.8,0.5,3.6,1.2,5.3
			c0.6,1.3,1.4,2.4,2.5,3.3C972.3-2248.7,971.8-2249.5,971.4-2250.3L971.4-2250.3z"/>
		<path class="st4" d="M981.1-2277.9c0.6,0.9,0.9,2,1,3.1l0.8-0.2c-0.1-0.9-0.5-1.7-1.1-2.4C981.6-2277.5,981.4-2277.7,981.1-2277.9
			z"/>
		<path class="st2" d="M978.4-2283.7c1.7,0,3.4,0.4,4.8,1.2c1,0.7,1.9,1.6,2.5,2.7c0.6,1.1,1,2.3,1.1,3.5l-4.2,0.8
			c-0.2-1.2-0.6-2.3-1.4-3.2c-0.7-0.8-1.7-1.2-2.7-1.1c-1.2,0-2.3,0.6-2.9,1.7c-0.5,0.9-0.8,2-0.7,3.1c0.1,2.1,0.9,4.1,2.3,5.6
			c0.8,0.9,1.6,1.7,2.6,2.5c1.3,1.1,2.1,1.8,2.5,2.2l0,0l0,0c1.2,1.2,2.3,2.5,3.1,4c0.3,0.5,0.6,1.1,0.8,1.7
			c0.5,1.1,0.7,2.2,0.8,3.3c0.1,2.2-0.6,4.5-1.9,6.3l0,0c-0.9,1.2-2.1,2-3.5,2.4c-1,0.3-1.9,0.4-2.9,0.4c-1.8,0.1-3.6-0.5-5.1-1.5
			c-1.2-0.9-2.1-2.1-2.7-3.4c-0.6-1.4-1-2.9-1.1-4.4l4.1-0.3c0.1,1.6,0.8,3.2,1.8,4.5c0.7,0.8,1.6,1.2,2.6,1.3h0.2
			c1.4,0,2.8-0.8,3.5-2.1c0.5-0.9,0.7-1.8,0.7-2.8c0-1.7-0.8-3.4-2.3-5l0,0l0,0c-1.1-1.1-2.8-2.6-5-4.7c-1.5-1.4-2.8-2.9-3.8-4.7
			c-0.8-1.5-1.2-3.2-1.2-5c0-3.2,1-5.6,3.2-7.2C974.9-2283.2,976.6-2283.7,978.4-2283.7 M978.4-2284.3c-1.9-0.1-3.7,0.5-5.2,1.6
			c-2.3,1.7-3.4,4.3-3.4,7.7c0,1.8,0.4,3.6,1.2,5.2c1.1,1.8,2.4,3.4,4,4.9c2.2,2.1,3.9,3.7,5,4.7c1.4,1.5,2.1,3.1,2.1,4.6
			c0.1,0.9-0.1,1.7-0.6,2.5c-0.6,1.1-1.7,1.8-2.9,1.8h-0.1c-0.8,0-1.6-0.4-2.2-1c-0.9-1-1.5-2.5-1.7-4.7l-5.4,0.4
			c0.1,1.8,0.5,3.6,1.2,5.3c0.6,1.4,1.6,2.7,2.9,3.6c1.6,1.1,3.5,1.7,5.5,1.6c1.1,0,2.1-0.1,3.1-0.4c1.5-0.4,2.9-1.4,3.9-2.6
			c1.4-1.9,2.1-4.3,2-6.7c-0.1-1.2-0.3-2.4-0.8-3.6c-0.2-0.6-0.5-1.2-0.9-1.8c-0.9-1.5-2-2.9-3.2-4.1c-0.4-0.4-1.3-1.2-2.6-2.3
			c-0.9-0.7-1.7-1.5-2.5-2.4c-1.5-1.8-2.2-3.5-2.2-5.2c0-1,0.2-1.9,0.7-2.7c0.5-0.9,1.4-1.4,2.4-1.4c0.8-0.1,1.7,0.3,2.2,0.9
			c0.8,1,1.2,2.3,1.3,3.6l5.4-1c-0.1-1.5-0.5-3-1.2-4.3c-0.6-1.2-1.6-2.2-2.7-2.9C982-2283.9,980.2-2284.3,978.4-2284.3
			L978.4-2284.3z"/>
		<path class="st0" d="M898-2273.8l-1.7,0l-4.3-4.4v-5.6h17.6l4.3,4.4v5.7h-5.9v31.6h-5.6l-4.3-4.4L898-2273.8z"/>
		<path class="st1" d="M897.9-2275.7h-3.5l-2.5-2.5v-5.7h17.6l2.5,2.5v5.7h-5.9v31.6h-5.6l-2.5-2.5L897.9-2275.7z"/>
		<path class="st2" d="M892-2283.9v5.7h6v31.6h5.6v-31.6h6v-5.7H892z"/>
		<path class="st4" d="M893-2282.9h16.5v-1H892v5.7h1V-2282.9z"/>
		<rect x="898" y="-2277.2" class="st4" width="1" height="30.6"/>
		<g transform="translate(954.43 233.668)" class="st5">
			<path class="st2" d="M-60.8-2515.9h15.7v-1h-16.7v4.6h1V-2515.9z"/>
			<rect x="-55.8" y="-2510.2" class="st2" width="1" height="29.5"/>
		</g>
		<path class="st2" d="M908.9-2283.3v4.4H903v31.6h-4.4v-31.6h-6v-4.4L908.9-2283.3 M909.6-2283.9H892v5.7h6v31.6h5.6v-31.6h5.9
			L909.6-2283.9z"/>
		<path class="st0" d="M955.2-2282.6c3.1,0,6.5,4.1,8,5.8c1.3,1.5,1.9,3.6,1.9,6.3v5.4c0,2.6-1.1,5-3,6.7l4.2,16.3h-6.1l-4.6-4.6
			l-2.3-9.4c-0.1,0-0.2,0-0.3-0.1v14h-5.6l-4.6-4.6v-37.3L955.2-2282.6z M959.7-2270.4c0-2.2-1.1-3.2-3.2-3.2h-3.4v11.9l2.7-1.2
			c0.9,0,1.7-0.3,2.3-0.9c0.6-0.6,1-1.4,0.9-2.3L959.7-2270.4z"/>
		<path class="st1" d="M954.2-2283.3c3.1,0,5.4,2.6,6.9,4.4c1.3,1.5,1.9,3.6,1.9,6.3v5.4c0,2.6-1.1,5-3,6.7l4.2,16.3h-6.1l-2.5-2.5
			l-2.8-11.5c-0.2,0-1.8,0-1.8,0v14h-5.6l-2.5-2.5v-37.3L954.2-2283.3z M957.6-2272.5c0-2.2-1.1-3.2-3.2-3.2H951v11.9h3.4
			c0.9,0,1.7-0.3,2.3-0.9c0.6-0.6,1-1.4,0.9-2.3L957.6-2272.5L957.6-2272.5z"/>
		<path class="st2" d="M961.6-2247.1l-0.4-1.6l-0.4-1.6l-0.4-1.6l-0.4-1.6l-0.4-1.6l-0.4-1.6l-0.4-1.6l-0.4-1.6l-0.4-1.6l-0.4-1.6
			l0-0.2c0.5-0.4,0.9-0.9,1.3-1.4c0.4-0.5,0.7-1,0.9-1.6c0.5-1,0.7-2.1,0.8-3.1c0-0.2,0-0.4,0-0.6v-5.7c0-0.5,0-1.1-0.1-1.6
			c-0.1-0.5-0.2-1.1-0.3-1.6c-0.1-0.5-0.4-1.1-0.6-1.6c-0.2-0.5-0.5-0.9-0.9-1.3c-0.1-0.1-0.1-0.2-0.2-0.2c-0.6-0.7-1.4-1.2-2.3-1.6
			c-1.4-0.6-2.9-0.8-4.4-0.8h-8.8v37.3h5.6v-14h3.7l0.3,1.1l0.4,1.6l0.4,1.6l0.4,1.6l0.4,1.6l0.4,1.6l0.4,1.6l0.4,1.6l0.4,1.6
			l0.1,0.4h6.1L961.6-2247.1z M948.5-2269.1v-9.2h3.4c1.4,0,2.3,0.4,2.8,1.3c0.3,0.5,0.4,1,0.4,1.6c0,0.1,0,0.2,0,0.3v5.5
			c0,0.2,0,0.3,0,0.5c-0.1,0.6-0.3,1.1-0.7,1.6c-0.1,0.1-0.1,0.2-0.2,0.2c-0.6,0.6-1.4,1-2.3,0.9h-3.4L948.5-2269.1L948.5-2269.1z"
			/>
		<path class="st4" d="M943.9-2282.9h8.9c2.5,0,4.1,0.5,5.6,1.7c0-0.1-0.1-0.1-0.1-0.2c-1.5-1.7-3.4-2.6-6.5-2.6h-8.9v37.3h1
			V-2282.9z"/>
		<path class="st4" d="M953.3-2259.7h-0.8l3.2,13h0.8L953.3-2259.7z"/>
		<path class="st4" d="M955.2-2266.2c0.6-0.6,1-1.4,0.9-2.3v-5.4c0-1.4-0.5-2.4-1.4-2.9c0.3,0.6,0.4,1.2,0.4,1.8v5.4
			c0,0.9-0.3,1.7-0.9,2.3c-0.6,0.6-1.4,1-2.3,0.9h-2.3v1h3.4C953.8-2265.3,954.6-2265.6,955.2-2266.2z"/>
		<path class="st2" d="M951.7-2283.4c2.9,0,5.1,0.8,6.4,2.4c1.2,1.4,1.8,3.4,1.8,5.9v5.4c0,2.4-1,4.7-2.8,6.2l-0.3,0.3l0.1,0.4
			l4,15.5h-4.8l-3.3-13.6l-0.1-0.5h-4.9v14h-4.4v-36L951.7-2283.4 M947.8-2265.7h4c1,0,2-0.4,2.7-1.1c0.7-0.7,1.1-1.7,1.1-2.7v-5.4
			c0-2.5-1.4-3.9-3.8-3.9h-4L947.8-2265.7 M951.7-2284h-8.9v37.3h5.6v-14h3.7l3.4,14h6.1l-4.2-16.3c1.9-1.7,3-4.1,3-6.7v-5.4
			c0-2.7-0.6-4.8-1.9-6.3C957.1-2283.1,954.8-2284,951.7-2284L951.7-2284z M948.5-2266.3v-11.9h3.4c2.1,0,3.2,1.1,3.2,3.2v5.4
			c0,0.9-0.3,1.7-0.9,2.3c-0.6,0.6-1.4,1-2.3,0.9L948.5-2266.3z"/>
		<path class="st0" d="M852.3-2282.5c2.8,0.9,4.8,3.4,6.5,5.1c1.3,1.3,2.2,3,2.5,4.9c0.1,0.5,0.1,0.9,0.1,1.4v20.4
			c0,4.9-4,8.9-8.9,8.9c-2.4,0-4.6-0.9-6.3-2.6c-1.7-1.7-6.2-7.1-6.2-9.5l0-18.1c0-2.5-1-6.3,3.6-10.2
			C846.5-2284.7,850-2283.2,852.3-2282.5z M855.6-2271.1c0-1.8-1.4-3.2-3.2-3.2c0,0,0,0,0,0c-0.9,0-1.7,0.3-2.3,0.9
			c-0.6,0.6-1,1.4-0.9,2.3v20.4c0,0.9,0.3,1.7,0.9,2.3c0.6,0.6,1.1,0.6,2,0.6c1.8,0,3.2-1.4,3.2-3.2c0,0,0,0,0,0L855.6-2271.1z"/>
		<path class="st1" d="M850.6-2281.9c4.9,0,8.9,4,8.9,8.9c0,0,0,0,0,0v20.4c0,4.9-4,8.9-8.9,8.9c-4.9,0-8.9-4-8.9-8.9v-20.4
			C841.7-2277.9,845.7-2281.9,850.6-2281.9z M853.7-2273.1c0-1.8-1.4-3.2-3.2-3.2c0,0,0,0,0,0c-0.9,0-1.7,0.3-2.3,0.9
			c-0.6,0.6-1,1.4-0.9,2.3v20.4c0,0.9,0.3,1.7,0.9,2.3c0.6,0.6,1.4,1,2.3,0.9c1.8,0,3.2-1.4,3.2-3.2c0,0,0,0,0,0V-2273.1z"/>
		<path class="st2" d="M857-2276.9c-0.1-0.5-0.2-1.1-0.4-1.6c-0.2-0.5-0.5-1.1-0.8-1.6c-0.4-0.6-0.8-1.1-1.2-1.6l-0.1-0.1
			c-0.6-0.6-1.2-1.1-1.9-1.5c-2.7-1.5-6.1-1.5-8.8,0c-0.7,0.4-1.3,0.9-1.9,1.5l-0.1,0.1c-0.5,0.5-0.9,1-1.2,1.6
			c-0.3,0.5-0.6,1-0.8,1.6c-0.2,0.5-0.3,1-0.4,1.6c-0.1,0.5-0.1,1-0.1,1.5v20.5c0,0.5,0.1,1.1,0.1,1.6c0.1,0.5,0.2,1.1,0.4,1.6
			c0.2,0.6,0.5,1.1,0.8,1.6c0.3,0.5,0.7,1,1.2,1.4l0.1,0.1c0.6,0.6,1.4,1.2,2.2,1.6c1.2,0.6,2.6,0.9,4,0.9c1.4,0,2.8-0.3,4-0.9
			c0.8-0.4,1.5-0.9,2.2-1.6c0,0,0.1-0.1,0.1-0.1c0.4-0.4,0.9-0.9,1.2-1.5c0.6-1,1.1-2,1.3-3.1c0.1-0.5,0.1-1,0.1-1.6v-20.5
			C857.1-2275.9,857.1-2276.4,857-2276.9L857-2276.9z M851.3-2273.8v18.7c0,0.1,0,0.1,0,0.2c0,0.6-0.2,1.1-0.5,1.6
			c-0.1,0.2-0.3,0.3-0.4,0.5c-0.6,0.6-1.4,1-2.3,0.9c-0.9,0-1.7-0.3-2.3-0.9c-0.2-0.2-0.3-0.3-0.4-0.5c-0.3-0.5-0.5-1-0.5-1.6
			c0-0.1,0-0.1,0-0.2v-20.4c0-0.9,0.3-1.7,1-2.3c0.6-0.6,1.4-0.9,2.3-0.9c0.5,0,0.9,0.1,1.3,0.3c0.4,0.2,0.7,0.4,1,0.7
			c0.3,0.3,0.5,0.6,0.6,0.9c0.2,0.4,0.3,0.9,0.3,1.4L851.3-2273.8L851.3-2273.8z"/>
		<path class="st4" d="M849.1-2250.9c1.8,0,3.2-1.4,3.2-3.2c0,0,0,0,0,0v-20.4c0-0.9-0.3-1.7-0.9-2.3c-0.2-0.2-0.4-0.3-0.6-0.5
			c0.3,0.5,0.5,1.1,0.5,1.7v20.4c0,1.8-1.4,3.2-3.2,3.2c0,0,0,0,0,0c-0.6,0-1.2-0.2-1.7-0.5c0.1,0.2,0.3,0.4,0.5,0.6
			C847.4-2251.2,848.2-2250.9,849.1-2250.9L849.1-2250.9z"/>
		<path class="st4" d="M840.3-2254v-20.4c0-4.9,4-8.9,8.9-8.9c2.1,0,4.1,0.7,5.8,2.1c-0.2-0.2-0.3-0.4-0.5-0.5
			c-3.5-3.5-9.1-3.5-12.6,0c-1.7,1.7-2.6,3.9-2.6,6.3v20.4c0,2.4,0.9,4.7,2.6,6.3c0.2,0.2,0.4,0.4,0.6,0.5
			C841.1-2249.8,840.3-2251.9,840.3-2254z"/>
		<g transform="translate(877.826 232.879)" class="st5">
			<path class="st2" d="M-28.1-2483.1c1.8,0,3.2-1.4,3.2-3.2c0,0,0,0,0,0v-20.4c0-0.9-0.3-1.7-0.9-2.3c-0.2-0.2-0.4-0.3-0.6-0.5
				c0.3,0.5,0.5,1.1,0.5,1.7l-0.3,20.2c0.1,0.8-0.3,1.5-0.8,2c-0.5,0.6-1.3,1-2.1,1.1c-0.6,0.1-1.2,0-1.7-0.2
				c0.1,0.2,0.3,0.4,0.5,0.6C-29.8-2483.5-29-2483.1-28.1-2483.1L-28.1-2483.1z"/>
			<path class="st2" d="M-36.9-2486.3v-20.4c0-4.9,4-8.9,8.9-8.9c2.2,0,3.4,0.2,5,1.6c-0.2-0.2-0.3-0.4-0.5-0.5
				c-1.7-1.7-3.5-2.2-6-2.2c-2.2-0.1-4.4,0.7-6,2.3c-1.7,1.7-2.7,4-2.7,6.4l0.1,20.7c0,2.3,1,4.5,2.6,6c0.2,0.2,0.4,0.4,0.6,0.5
				C-36.1-2482.3-36.9-2484.2-36.9-2486.3z"/>
		</g>
		<path class="st2" d="M848.2-2283.7c2.2,0,4.3,0.8,5.9,2.4c1.6,1.5,2.5,3.7,2.4,5.9v20.4c0,2.2-0.8,4.3-2.4,5.9
			c-1.5,1.6-3.7,2.5-5.9,2.4c-2.2,0.1-4.3-0.8-5.9-2.4c-1.6-1.5-2.4-3.7-2.4-5.9v-20.4C839.9-2280,843.6-2283.7,848.2-2283.7
			C848.2-2283.7,848.2-2283.7,848.2-2283.7 M848-2251.3c2.1,0,3.8-1.7,3.8-3.8c0,0,0,0,0,0v-20.4c0-2.1-1.8-3.9-3.9-3.8
			c-1,0-2,0.4-2.7,1.1c-0.7,0.7-1.2,1.7-1.1,2.7v20.4c0,1,0.4,2,1.1,2.7C846-2251.7,847-2251.3,848-2251.3 M848.2-2284.4
			c-4.9,0-8.9,4-8.9,8.9v20.4c0,2.4,0.9,4.7,2.6,6.3c1.6,1.7,3.9,2.7,6.3,2.6c4.9,0,8.9-4,8.9-8.9c0,0,0,0,0,0v-20.4
			C857.1-2280.4,853.1-2284.4,848.2-2284.4C848.2-2284.4,848.2-2284.4,848.2-2284.4L848.2-2284.4z M848-2251.9
			c-0.9,0-1.7-0.3-2.3-0.9c-0.6-0.6-1-1.4-0.9-2.3v-20.4c0-0.9,0.3-1.7,0.9-2.3c0.6-0.6,1.4-1,2.3-0.9c1.8,0,3.2,1.4,3.2,3.2
			c0,0,0,0,0,0v20.4C851.3-2253.4,849.8-2251.9,848-2251.9C848-2251.9,848-2251.9,848-2251.9z"/>
		<path class="st0" d="M824.3-2242.2h-5.7l-4.3-4.3l4.4-33l11.6-4.3l4.4,4.4l0,5.6h-10.4v10.2l3.2-4.3l4.4,4.4v5.6h-7.6
			L824.3-2242.2L824.3-2242.2z"/>
		<path class="st1" d="M822.4-2244.1h-5.6l-2.5-2.5l2.5-34.8l13.5-2.5l2.5,2.5v5.7h-10.4v10.2l5.1-2.5l2.5,2.5v5.7h-7.6
			L822.4-2244.1L822.4-2244.1z"/>
		<rect x="814.3" y="-2247.1" class="st6" width="5.6" height="0.5"/>
		<rect x="814.3" y="-2283.9" class="st6" width="16" height="0.7"/>
		<path class="st2" d="M814.3-2283.2v36.1h5.6v-15.3h7.6v-5.7H820v-10.2h10.4v-5H814.3z"/>
		<path class="st4" d="M815.4-2282.8h15v-1h-16v37.3h1V-2282.8z"/>
		<rect x="821" y="-2268" class="st4" width="6.5" height="1"/>
		<g transform="translate(841.909 233.716)" class="st5">
			<path class="st4" d="M-25.9-2515.9H-12v-1h-15v36.3h1V-2515.9z"/>
			<rect x="-20.3" y="-2501.1" class="st4" width="5.5" height="1"/>
		</g>
		<path class="st2" d="M829.7-2283.2v4.4h-10.4v11.4h7.6v4.4h-7.6v15.8H815v-36.1H829.7 M830.4-2283.9h-16v37.3h5.6v-15.8h7.6v-5.7
			H820v-10.2h10.4L830.4-2283.9L830.4-2283.9z"/>
		<path class="st0" d="M922-2242.1l-4.2-4.5l4.3-32.8l11.7-4.5l4.3,4.7v5.5h-10.4v10.2l3.3-4.5l4.3,4.7v5.5h-7.6v10.2l6.1-4.5
			l4.3,4.7v5.5L922-2242.1L922-2242.1z"/>
		<path class="st1" d="M920.2-2244.1l-2.3-2.6l2.3-34.8l13.7-2.6l2.3,2.6v5.7h-10.4v10.2l5.2-2.6l2.3,2.6v5.7h-7.6v10.2l8-2.6
			l2.3,2.6v5.7L920.2-2244.1L920.2-2244.1z"/>
		<path class="st2" d="M917.8-2284v37.3h16v-5.7h-10.4v-10.2h7.6v-5.7h-7.6v-10.2h10.4v-5.7H917.8z"/>
		<path class="st4" d="M918.9-2282.9h15v-1h-16v37.3h1V-2282.9z"/>
		<rect x="924.5" y="-2268.2" class="st4" width="6.5" height="1"/>
		<rect x="924.5" y="-2252.3" class="st4" width="9.3" height="1"/>
		<g transform="translate(991.866 233.56)" class="st5">
			<path class="st2" d="M-72.4-2515.9h13.9v-1h-15v36.3h1L-72.4-2515.9z"/>
			<rect x="-66.7" y="-2501.1" class="st2" width="5.5" height="1"/>
			<rect x="-66.7" y="-2485.3" class="st2" width="8.3" height="1"/>
		</g>
		<path class="st2" d="M933.2-2283.3v4.4h-10.4v11.4h7.6v4.4h-7.6v11.4h10.4v4.4h-14.8v-36.1L933.2-2283.3 M933.8-2284h-16v37.3h16
			v-5.7h-10.4v-10.2h7.6v-5.7h-7.6v-10.2h10.4L933.8-2284L933.8-2284z"/>
		<path class="st0" d="M888.4-2251.5c0.1,2.4-0.6,4.7-2,6.7c-1,1.3-2.3,2.2-3.9,2.6c-1,0.3-2.1,0.4-3.1,0.4c-2,0.1-3.9-0.5-5.5-1.6
			c-1.6-1.2-3-2.8-4-4.6c-0.7-1.5,0-2.4-0.1-4.3l1-4.7l4.3,4c0.2,2.2,0.8,4.1,1.8,5c0.7,0.7,1.4,0.7,2.3,0.6c1.2,0,2.2-0.6,2.7-1.7
			c0.5-0.6,0.8-1.4,0.8-2.2c0-1.6-0.7-3.1-2.1-4.6c-1.1-1.1-2.6-2.8-4.8-4.9c-1.9-1.8-3.4-3.3-4.1-4.7c-0.8-1.6-1.3-3.4-1.2-5.2
			c0-3.4,0.3-7.3,2.6-9c1.4-1,4-0.3,6-0.3c2,0,0.5-2,2.1-1.5c1.5,0.5,5,4.5,5.6,5.8c0.7,1.3,1.2,2.8,1.3,4.3l-5.2,0.9
			c0,0-4.5-4.3-4.5-4.3s1.7-0.3,0.8-0.2c-1,0-1.9,0.6-2.4,1.4c-0.5,0.8-0.7,1.8-0.7,2.7c0,1.7,0.7,3.4,2.2,5.2
			c0.6,0.7,0.4,0.2,1.5,1.1c1.3,1.1,3.2,3.1,3.6,3.6c1.3,1.2,2.3,2.6,3.2,4.1c0.3,0.6,0.6,1.2,0.9,1.8
			C888-2254,888.3-2252.8,888.4-2251.5z"/>
		<path class="st1" d="M886.7-2253.4c0.1,2.4-0.6,4.7-2,6.7c-1,1.3-2.3,2.2-3.9,2.6c-1,0.3-2.1,0.4-3.1,0.4c-2,0.1-3.9-0.5-5.5-1.6
			c-1.3-0.9-2.2-2.2-2.9-3.6c-0.7-1.7-1.2-3.5-1.2-5.3l2.7-2.9l2.7,2.5c0.2,2.2,0.8,3.7,1.7,4.7c0.6,0.7,1.4,1.1,2.3,1
			c1.2,0,2.4-0.7,2.9-1.8c0.4-0.8,0.6-1.6,0.6-2.5c0.1-1.7-0.6-3.4-1.7-4.6c-1.1-1.1-3.1-2.6-5.4-4.7c-1.6-1.4-2.9-3-4-4.9
			c-0.8-1.6-1.3-3.4-1.2-5.2c0-3.4,1.1-6,3.4-7.7c1.5-1.1,3.4-1.6,5.2-1.6c2,0,2.6-0.6,4,0.3c1.5,1.1,2.8,2.4,3.9,3.9
			c0.7,1.3,1.1,2.8,1.2,4.3l-5.4,1c0,0-2.6-2.5-2.6-2.5s1.7-0.6,1.3-1.1c-0.6-0.6-1.4-1-2.2-0.9c-1,0-1.9,0.5-2.4,1.4
			c-0.5,0.8-0.7,1.8-0.7,2.7c0,1.7,1.1,3.4,2.6,5.2c0.8,0.9,1.6,1.7,2.5,2.4c1.3,1.1,2.2,1.9,2.6,2.3c1.3,1.2,2.3,2.6,3.2,4.1
			c0.3,0.6,0.6,1.2,0.9,1.8C886.6-2255.8,886.8-2254.6,886.7-2253.4z"/>
		<path class="st2" d="M884-2256.5c-0.1-0.5-0.2-1.1-0.3-1.6c-0.1-0.4-0.3-0.9-0.5-1.3c0-0.1-0.1-0.2-0.1-0.2
			c-0.2-0.5-0.5-1-0.8-1.5c0,0,0,0,0-0.1c-0.3-0.5-0.7-1.1-1-1.6c-0.4-0.5-0.8-1-1.3-1.6c-0.3-0.3-0.6-0.6-0.9-0.9
			c-0.2-0.2-0.4-0.4-0.7-0.7c-0.5-0.4-1.1-0.9-1.8-1.6c0,0,0,0-0.1,0c-0.7-0.6-1.2-1.1-1.7-1.5c-0.3-0.3-0.6-0.6-0.8-0.9
			c-0.2-0.2-0.4-0.5-0.6-0.7c-0.4-0.5-0.7-1-0.9-1.6c-0.2-0.5-0.4-1-0.6-1.6c-0.1-0.4-0.2-0.9-0.2-1.4c0-0.1,0-0.1,0-0.2
			c0-0.5,0.1-1.1,0.2-1.6c0.1-0.3,0.2-0.7,0.4-0.9c0.1-0.2,0.3-0.4,0.5-0.6c0.5-0.5,1.2-0.8,1.9-0.8c0.8,0,1.5,0.2,2.1,0.8
			c0.1,0.1,0.1,0.1,0.2,0.2c0.3,0.4,0.6,0.9,0.8,1.4c0.2,0.5,0.3,1,0.4,1.6c0,0.2,0.1,0.4,0.1,0.6l3.3-0.6l2.1-0.4
			c0-0.4-0.1-0.8-0.2-1.2c-0.1-0.5-0.2-1.1-0.4-1.6c-0.2-0.5-0.4-1.1-0.7-1.6c0,0,0,0,0,0c-0.3-0.6-0.7-1.1-1.1-1.6
			c-0.5-0.5-1-1-1.6-1.3c-0.1-0.1-0.3-0.2-0.4-0.2c-1.5-0.8-3.1-1.1-4.7-1.1c-1.6,0-3.1,0.3-4.5,1.1c-0.3,0.1-0.5,0.3-0.7,0.5
			c-0.4,0.3-0.8,0.7-1.2,1.1c-0.4,0.5-0.8,1-1.1,1.6c-0.3,0.5-0.5,1-0.7,1.6c-0.2,0.5-0.3,1-0.3,1.6c-0.1,0.5-0.1,1-0.1,1.6
			c0,0.1,0,0.2,0,0.3c0,0.4,0,0.8,0.1,1.2c0.1,0.5,0.1,1.1,0.3,1.6c0.1,0.5,0.3,1.1,0.5,1.6c0.1,0.3,0.3,0.6,0.4,0.9
			c0.1,0.2,0.3,0.5,0.4,0.7c0.4,0.5,0.7,1.1,1.1,1.6c0.4,0.5,0.9,1,1.4,1.6c0.3,0.3,0.7,0.7,1,1c0.2,0.2,0.4,0.4,0.6,0.6
			c0.6,0.6,1.2,1.1,1.7,1.6c0.6,0.6,1.2,1.1,1.7,1.6c0.4,0.4,0.8,0.7,1.1,1c0.2,0.2,0.3,0.4,0.5,0.5c0.4,0.5,0.7,1,1,1.6
			c0.2,0.5,0.4,1,0.5,1.6c0.1,0.3,0.1,0.6,0.1,0.9c0,0.2,0,0.4,0,0.6c0,0.5-0.2,1.1-0.4,1.6c0,0.1-0.1,0.2-0.1,0.3
			c-0.3,0.5-0.7,1-1.2,1.3c-0.5,0.3-1.1,0.5-1.7,0.5c-0.6,0-1.2-0.2-1.7-0.5c-0.2-0.2-0.4-0.3-0.6-0.5c-0.3-0.3-0.5-0.7-0.7-1
			c-0.3-0.5-0.5-1-0.6-1.6c-0.1-0.5-0.2-1-0.3-1.6c0-0.2,0-0.4-0.1-0.5l-5.4,0.4c0,0.1,0,0.1,0,0.2c0,0.5,0.1,1.1,0.2,1.6
			c0.1,0.5,0.2,1.1,0.3,1.6c0.1,0.5,0.3,1.1,0.5,1.6c0.1,0.1,0.1,0.3,0.2,0.4c0.2,0.4,0.4,0.8,0.6,1.2c0.3,0.6,0.8,1.1,1.2,1.6
			c0.3,0.3,0.7,0.6,1,0.9c0.3,0.2,0.7,0.5,1,0.7c1.4,0.7,2.9,1,4.4,1c1.1,0,2.1-0.1,3.1-0.4c0.5-0.1,0.9-0.3,1.4-0.6
			c0.8-0.4,1.5-0.9,2.1-1.6c0.1-0.2,0.3-0.3,0.4-0.5c0.3-0.3,0.5-0.7,0.7-1.1c0.3-0.5,0.5-1,0.7-1.6c0.2-0.5,0.3-1,0.4-1.6
			c0.1-0.5,0.2-1,0.2-1.6c0-0.3,0-0.6,0-0.9C884.1-2256,884-2256.3,884-2256.5z"/>
		<path class="st3" d="M879.8-2264.6c-0.4-0.4-1.3-1.2-2.6-2.3c-0.4-0.4-0.8-0.7-1.2-1c0.7,0.7,1.4,1.4,2.2,2.1
			c0.9,0.8,1.6,1.4,2.1,1.8C880.1-2264.3,880-2264.5,879.8-2264.6z"/>
		<path class="st4" d="M876.5-2249.6c1.2,0,2.4-0.7,2.9-1.8c0.4-0.8,0.6-1.6,0.6-2.5c0-1.6-0.7-3.1-2.1-4.6
			c-0.2-0.2-0.5-0.5-0.8-0.7c1,1.1,1.5,2.5,1.5,4c0.1,0.9-0.1,1.7-0.6,2.5c-0.6,1.1-1.7,1.8-2.9,1.8c-0.6,0-0.8,0.2-1.3-0.2
			c0.1,0.2,0.2,0.3,0.4,0.5C874.8-2250,875.6-2249.6,876.5-2249.6z"/>
		<path class="st2" d="M871.9-2264.3C871.9-2264.3,872-2264.2,871.9-2264.3c-1.1-1.1-2.1-2.4-2.9-3.8c-0.8-1.6-1.3-3.4-1.3-5.2
			c0-3.4,1.1-6,3.4-7.7c1.5-1.1,3.4-1.6,5.2-1.6c1.7-0.1,3.4,0.4,4.8,1.3c0.3,0.2,0.5,0.3,0.8,0.5c-0.4-0.6-0.9-1.1-1.5-1.6
			c-1.6-1.1-3.5-1.6-5.4-1.7c-1.9-0.1-3.7,0.5-5.2,1.6c-2.3,1.7-3.4,4.3-3.4,7.7c0.1,2,0.6,3.9,1.5,5.6
			C869-2267.3,870.3-2265.7,871.9-2264.3L871.9-2264.3z"/>
		<path class="st4" d="M868.4-2249.7c-0.7-1.7-1.2-3.5-1.2-5.3l3.8-0.3c-0.1-0.4-0.1-0.7-0.2-1.1l-4.7,0.4c0.1,1.8,0.5,3.6,1.2,5.3
			c0.6,1.2,1.5,2.3,2.6,3.1C869.3-2248.2,868.8-2248.9,868.4-2249.7z"/>
		<path class="st4" d="M878.1-2277.2c0.5,0.6,0.7,1.4,0.7,2.2l0.9-0.2c-0.2-1-0.3-0.8-0.8-1.4
			C878.6-2276.9,878.3-2277.1,878.1-2277.2L878.1-2277.2z"/>
		<path class="st3" d="M879.1-2265.3c-0.4-0.4-1.3-1.2-2.6-2.3c-0.4-0.4-0.8-0.7-1.2-1c0.7,0.7,1.4,1.4,2.2,2.1
			c0.9,0.8,1.6,1.4,2.1,1.8C879.5-2264.9,879.3-2265.1,879.1-2265.3z"/>
		<path class="st4" d="M875.9-2250.2c1.2,0,2.4-0.7,2.9-1.8c0.4-0.8,0.6-1.6,0.6-2.5c0-1.6-0.7-3.1-2.1-4.6
			c-0.2-0.2-0.5-0.5-0.8-0.7c1.1,1.2,1.7,2.7,1.8,4.3c0.1,0.9-0.1,1.7-0.6,2.5c-0.6,1.1-1.7,1.8-2.9,1.8c-0.6,0-1.2-0.1-1.7-0.5
			c0.1,0.2,0.2,0.3,0.4,0.5C874.2-2250.6,875-2250.2,875.9-2250.2L875.9-2250.2z"/>
		<path class="st4" d="M871.3-2264.9C871.3-2264.9,871.3-2264.9,871.3-2264.9c-1.1-1.1-2.1-2.4-2.9-3.8c-0.8-1.6-1.3-3.4-1.2-5.2
			c0-3.4,1.1-6,3.4-7.7c1.5-1.1,3.4-1.6,5.2-1.6c1.8-0.1,3.6,0.4,5.1,1.3c0.3,0.2,0.2,0.3,0.4,0.5c-0.4-0.6-0.9-1.1-1.5-1.6
			c-1.6-0.9-3.3-1.4-5.1-1.3c-1.9-0.1-3.7,0.5-5.2,1.6c-2.3,1.7-3.4,4.3-3.4,7.7c0,1.8,0.4,3.6,1.2,5.2
			C868.4-2268,869.7-2266.3,871.3-2264.9L871.3-2264.9z"/>
		<path class="st4" d="M867.7-2250.3c-0.7-1.7-1.2-3.5-1.2-5.3l4.5-0.3c-0.1-0.4-0.1-0.7-0.2-1.1l-5.4,0.4c0.1,1.8,0.5,3.6,1.2,5.3
			c0.6,1.3,1.4,2.4,2.5,3.3C868.6-2248.7,868.1-2249.5,867.7-2250.3L867.7-2250.3z"/>
		<path class="st4" d="M877.4-2277.9c0.6,0.9,0.9,2,1,3.1l0.9-0.2c-0.2-0.9-0.6-1.7-1.1-2.4C878-2277.5,877.7-2277.7,877.4-2277.9z"
			/>
		<path class="st2" d="M874.7-2283.7c1.7,0,3.4,0.4,4.8,1.2c1,0.7,1.9,1.6,2.5,2.7c0.6,1.1,1,2.3,1.1,3.5l-4.2,0.8
			c-0.2-1.2-0.6-2.3-1.4-3.2c-0.7-0.8-1.7-1.2-2.7-1.1c-1.2,0-2.3,0.6-2.9,1.7c-0.5,0.9-0.8,2-0.7,3.1c0.1,2.1,0.9,4.1,2.3,5.6
			c0.8,0.9,1.6,1.7,2.6,2.5c1.3,1.1,2.1,1.8,2.5,2.2l0,0l0,0c1.2,1.2,2.3,2.5,3.1,4c0.3,0.5,0.6,1.1,0.8,1.7
			c0.5,1.1,0.7,2.2,0.8,3.3c0.1,2.2-0.6,4.5-1.9,6.3l0,0c-0.9,1.2-2.1,2-3.5,2.4c-1,0.3-1.9,0.4-2.9,0.4c-1.8,0.1-3.6-0.5-5.1-1.5
			c-1.2-0.9-2.1-2.1-2.7-3.4c-0.6-1.4-1-2.9-1.1-4.4l4.1-0.3c0.1,1.6,0.8,3.2,1.8,4.5c0.7,0.8,1.6,1.2,2.6,1.3h0.2
			c1.4,0,2.8-0.8,3.5-2.1c0.5-0.9,0.7-1.8,0.7-2.8c0-1.7-0.8-3.4-2.3-5l0,0l0,0c-1.1-1.1-2.8-2.6-5-4.7c-1.5-1.4-2.8-2.9-3.8-4.7
			c-0.8-1.5-1.2-3.2-1.2-5c0-3.2,1-5.6,3.2-7.2C871.3-2283.2,873-2283.7,874.7-2283.7 M874.7-2284.3c-1.9-0.1-3.7,0.5-5.2,1.6
			c-2.3,1.7-3.4,4.3-3.4,7.7c0,1.8,0.4,3.6,1.2,5.2c1.1,1.8,2.4,3.4,4,4.9c2.2,2.1,3.9,3.7,5,4.7c1.4,1.5,2.1,3.1,2.1,4.6
			c0.1,0.9-0.1,1.7-0.6,2.5c-0.6,1.1-1.7,1.8-2.9,1.8h-0.1c-0.8,0-1.6-0.4-2.2-1c-0.9-1-1.5-2.6-1.7-4.7l-5.4,0.4
			c0.1,1.8,0.5,3.6,1.2,5.3c0.6,1.4,1.6,2.7,2.9,3.6c1.6,1.1,3.5,1.7,5.5,1.6c1.1,0,2.1-0.1,3.1-0.4c1.5-0.4,2.9-1.4,3.9-2.6
			c1.4-1.9,2.1-4.3,2-6.7c-0.1-1.2-0.3-2.4-0.8-3.6c-0.2-0.6-0.5-1.2-0.9-1.8c-0.9-1.5-2-2.9-3.2-4.1c-0.4-0.4-1.3-1.2-2.6-2.3
			c-0.9-0.7-1.7-1.5-2.5-2.4c-1.5-1.8-2.2-3.5-2.2-5.2c0-1,0.2-1.9,0.7-2.7c0.5-0.9,1.4-1.4,2.4-1.4c0.8-0.1,1.7,0.3,2.2,0.9
			c0.8,1,1.2,2.3,1.3,3.6l5.4-1c-0.1-1.5-0.5-3-1.2-4.3c-0.6-1.2-1.6-2.2-2.7-2.9C878.3-2283.9,876.5-2284.4,874.7-2284.3
			L874.7-2284.3z"/>
		<path class="st2" d="M938.9-2239.7h3.6v11.3h4.8v-11.3h3.6v26.3h-3.6v-11.9h-4.8v11.9h-3.6V-2239.7z"/>
		<path class="st2" d="M952.9-2233c0-3.7,1.2-6.9,6.1-6.9c4.7,0,6.2,2.4,6.2,6.5v13.3c0,3.7-1.2,6.9-6.2,6.9c-4.7,0-6.1-2.4-6.1-6.5
			V-2233z M956.5-2219.5c0,2.3,1,3.5,2.5,3.5c1.5,0,2.5-1.2,2.5-3.5v-13.8c0-2.6-0.9-3.8-2.5-3.8c-1.6,0-2.5,1.2-2.5,3.8V-2219.5z"
			/>
		<path class="st2" d="M967.1-2239.7h6c5,0,5.9,1.3,5.9,7.4s-0.9,7.4-5.9,7.4h-2.4v11.4h-3.6L967.1-2239.7L967.1-2239.7z
			 M970.7-2227.9h1.9c2.5,0,2.7-0.4,2.7-4.4c0-4-0.3-4.4-2.7-4.4h-1.9V-2227.9z"/>
		<path class="st2" d="M980.5-2239.7h9.9v3.1h-6.3v8.2h5.9v3.1h-5.9v8.9h6.3v3.1h-9.9V-2239.7z"/>
		<path class="st2" d="M840.9-2243.4c0.6,0.3,0.6,1,0.4,1.8l0,0c-0.3,0.8-0.9,1.5-1.6,1c-2.8-1.8-4.3-5.2-3.6-8.5
			c0.2-0.9,0.6-1.6,1.3-2.1l0,0c0.4-0.2,0.6,0.3,0.4,1.1C837.4-2247.5,838.6-2244.8,840.9-2243.4L840.9-2243.4z"/>
		<path class="st2" d="M844.8-2242.3c-0.6-0.5-1.2,0-1.5,0.9l0,0c-0.3,0.9-0.2,1.7,0.3,2c2.1,1.5,3.6,3.6,4.1,6.1
			c0.2,0.7,0.5,1.2,0.8,0.9l0,0c0.4-0.6,0.5-1.4,0.4-2.1C848.5-2237.4,847.1-2240.2,844.8-2242.3z"/>
		<path class="st2" d="M845.7-2244.9c-1,1.1-2.5,1.3-3.4,0.4c-0.9-0.9-0.7-2.6,0.3-3.7c1-1.1,2.5-1.3,3.4-0.4
			C846.8-2247.7,846.7-2246,845.7-2244.9z"/>
		<path class="st2" d="M844.4-2233.9c-2.3,0.3-4.6,0-6.7-0.9c-0.4,5,1.6,9.8,5.5,13c0.3,0.3,0.8,0.4,1.1,0.2
			c0.2-0.2,0.3-0.5,0.1-0.7c-2-1.9-3.3-4.4-3.8-7.1c-0.2-0.9,0.1-1.7,0.4-1.7s0.7,0.6,1,1.4c0.8,2.2,2.3,4.1,4.3,5.5
			c0.2,0,0.5-0.1,0.6-0.3c0.2-0.3,0.1-0.6-0.1-0.9C844.7-2227.6,843.8-2230.8,844.4-2233.9z"/>
		<path class="st2" d="M843.8-2231c-2.3,0.2-4.5-0.6-6.1-2.1c-0.1-0.1-0.2-0.3-0.2-0.4c0.5-2.7,0.7-5.2,1.7-8c0.3-0.9,1-1.8,1.4-1.9
			c1.4-0.2,2.8,0.2,4,1c0.5,0.6,0.8,1.4,0.6,2.2c-0.3,1.7-1.3-0.1-0.7,8.7c0,0.2-0.1,0.3-0.2,0.4
			C844.1-2231,844.5-2231.1,843.8-2231z"/>
		<path class="st2" d="M862-2247.8c0.2,0,0.4-0.1,0.5-0.1c-4.7-15.6,4.2-23-0.5-38.6c-0.3,0-0.5,0.1-0.8,0.2
			C866.1-2270.8,857.2-2263.4,862-2247.8z"/>
		<circle class="st2" cx="832.8" cy="-2298.6" r="10.9"/>
		<path class="st2" d="M834.8-2286.5l2.1-0.5l-0.8-0.9l-1,0.2L834.8-2286.5z"/>
		<path class="st2" d="M815.2-2312h3.6v22.7h6v3h-9.6V-2312z"/>
		<path class="st2" d="M839-2312h3.6l3.7,20.5h0.1l3.7-20.5h3.6l-5.2,25.7h-4.1L839-2312z"/>
		<path class="st2" d="M855.2-2312h9.7v3h-6.1v8.1h5.8v3h-5.8v8.7h6.1v3h-9.7V-2312z"/>
	</g>
</g>
</svg>
