<?xml version="1.0" encoding="utf-8"?>
<!-- Generator: Adobe Illustrator 22.0.1, SVG Export Plug-In . SVG Version: 6.00 Build 0)  -->
<svg version="1.1" id="Layer_1" xmlns="http://www.w3.org/2000/svg" xmlns:xlink="http://www.w3.org/1999/xlink" x="0px" y="0px"
	 viewBox="0 0 257.5 143.2" style="enable-background:new 0 0 257.5 143.2;" xml:space="preserve">
<style type="text/css">
	.st0{opacity:0.5;fill:#FCCD00;enable-background:new    ;}
	.st1{fill:#6D6E71;}
	.st2{fill:#FED115;}
	.st3{fill:#2775BB;}
	.st4{fill:#FFFFFF;}
	.st5{opacity:0.5;}
	.st6{fill:#F4F1ED;}
	.st7{fill:none;stroke:#6D6E71;stroke-width:0.75;stroke-miterlimit:10;}
	.st8{fill:none;stroke:#7A7A7A;stroke-width:0.75;stroke-miterlimit:10;}
	.st9{fill:#F15F57;}
	.st10{fill:#FFFFFF;stroke:#FFFFFF;stroke-width:3.31;stroke-miterlimit:10;}
</style>
<g transform="translate(-775 2334)">
	<path class="st0" d="M1009.5-2249.2c0.1,2.8-0.7,5.6-2.4,7.9c-1.2,1.5-2.8,2.6-4.6,3.2c-1.2,0.4-2.5,0.5-3.7,0.5
		c-2.3,0.1-4.6-0.6-6.5-1.9c-1.9-1.5-3.6-3.3-4.8-5.5c-0.8-1.8,0-2.8-0.1-5.2l1.2-5.6l5.1,4.7c0.3,2.6,1,4.8,2.1,6
		c0.8,0.9,1.7,0.8,2.8,0.7c1.4,0,2.6-0.8,3.2-2c0.6-0.7,0.9-1.7,1-2.6c0-1.8-0.8-3.7-2.5-5.5c-1.3-1.3-3.1-3.3-5.7-5.8
		c-2.2-2.2-4-3.9-4.9-5.6c-1-1.9-1.5-4.1-1.5-6.2c0-4,0.4-8.6,3.1-10.7c1.7-1.2,4.7-0.3,7.2-0.3c2.4,0,0.6-2.4,2.5-1.8
		c1.8,0.6,5.9,5.4,6.7,6.9c0.9,1.6,1.4,3.3,1.6,5.1l-6.1,1.1c0,0-5.4-5.1-5.4-5.1s2.1-0.3,0.9-0.2c-1.2,0-2.2,0.7-2.8,1.7
		c-0.5,1-0.8,2.1-0.8,3.3c0,2,0.9,4.1,2.6,6.2c0.7,0.8,0.5,0.2,1.8,1.3c1.6,1.3,3.8,3.7,4.3,4.3c1.5,1.4,2.8,3.1,3.8,4.9
		c0.4,0.7,0.7,1.4,1,2.1C1009.1-2252.1,1009.5-2250.7,1009.5-2249.2L1009.5-2249.2z"/>
	<path class="st1" d="M1007.6-2251.4c0.1,2.8-0.7,5.6-2.4,7.9c-1.2,1.5-2.8,2.6-4.6,3.2c-1.2,0.4-2.5,0.5-3.7,0.5
		c-2.3,0.1-4.6-0.6-6.5-1.9c-1.5-1.1-2.7-2.6-3.4-4.3c-0.9-2-1.4-4.1-1.5-6.3l3.2-3.4l3.2,2.9c0.3,2.6,1,4.5,2.1,5.6
		c0.7,0.8,1.7,1.3,2.8,1.2c1.5,0,2.8-0.9,3.5-2.2c0.5-0.9,0.7-1.9,0.7-2.9c0.1-2-0.7-4-2.1-5.5c-1.3-1.3-3.7-3.1-6.4-5.6
		c-1.8-1.7-3.4-3.6-4.7-5.8c-1-1.9-1.5-4.1-1.5-6.2c0-4,1.4-7.1,4.1-9.2c1.8-1.3,4-2,6.2-1.9c2.4,0,3-0.7,4.7,0.4
		c1.8,1.3,3.4,2.8,4.6,4.7c0.8,1.6,1.3,3.3,1.5,5.1l-6.4,1.2c0-0.1-3.2-3-3.2-3s2-0.7,1.6-1.3c-0.7-0.8-1.7-1.2-2.7-1.1
		c-1.2,0-2.3,0.6-2.8,1.6c-0.5,1-0.8,2.1-0.8,3.3c0,2,1.3,4.1,3,6.2c0.9,1,1.9,2,3,2.8c1.6,1.3,2.6,2.2,3.1,2.7
		c1.5,1.4,2.8,3.1,3.8,4.9c0.4,0.7,0.7,1.4,1,2.1C1007.5-2254.2,1007.7-2252.8,1007.6-2251.4L1007.6-2251.4z"/>
	<path class="st2" d="M1004.4-2255.1c-0.1-0.6-0.2-1.3-0.4-1.9c-0.2-0.5-0.3-1.1-0.6-1.6c0-0.1-0.1-0.2-0.1-0.3
		c-0.3-0.6-0.6-1.2-0.9-1.8c0,0,0-0.1,0-0.1c-0.4-0.6-0.8-1.3-1.2-1.9c-0.5-0.6-1-1.2-1.5-1.9c-0.3-0.4-0.7-0.7-1-1.1
		c-0.2-0.2-0.5-0.5-0.8-0.8c-0.5-0.5-1.3-1.1-2.2-1.9c0,0,0,0-0.1-0.1c-0.8-0.7-1.5-1.3-2-1.8c-0.4-0.4-0.7-0.7-1-1
		c-0.2-0.3-0.5-0.6-0.7-0.8c-0.4-0.6-0.8-1.2-1.1-1.9c-0.3-0.6-0.5-1.2-0.7-1.9c-0.1-0.5-0.2-1.1-0.2-1.6c0-0.1,0-0.2,0-0.3
		c0-0.6,0.1-1.3,0.3-1.9c0.1-0.4,0.3-0.8,0.5-1.1c0.2-0.3,0.3-0.5,0.6-0.7c0.6-0.6,1.4-0.9,2.2-0.9c0.9,0,1.8,0.3,2.5,0.9
		c0.1,0.1,0.1,0.1,0.2,0.2c0.4,0.5,0.7,1.1,1,1.7c0.2,0.6,0.4,1.2,0.5,1.9c0,0.2,0.1,0.5,0.1,0.7l3.9-0.7l2.5-0.5
		c0-0.5-0.1-1-0.2-1.4c-0.1-0.6-0.3-1.3-0.5-1.9c-0.2-0.6-0.5-1.3-0.8-1.8c0,0,0,0,0,0c-0.4-0.7-0.8-1.3-1.3-1.9
		c-0.5-0.6-1.2-1.1-1.9-1.6c-0.2-0.1-0.3-0.2-0.5-0.3c-1.7-0.9-3.7-1.3-5.6-1.3c-1.9,0-3.7,0.4-5.4,1.3c-0.3,0.2-0.6,0.4-0.9,0.6
		c-0.5,0.4-1,0.8-1.4,1.3c-0.5,0.6-0.9,1.2-1.3,1.9c-0.3,0.6-0.6,1.2-0.8,1.9c-0.2,0.6-0.3,1.2-0.4,1.9c-0.1,0.6-0.1,1.2-0.2,1.9
		c0,0.1,0,0.3,0,0.4c0,0.5,0,1,0.1,1.5c0.1,0.6,0.2,1.3,0.3,1.9c0.2,0.6,0.4,1.3,0.6,1.9c0.1,0.4,0.3,0.7,0.5,1
		c0.1,0.3,0.3,0.6,0.5,0.8c0.4,0.6,0.9,1.3,1.4,1.9c0.5,0.6,1,1.2,1.7,1.9c0.4,0.4,0.8,0.8,1.2,1.2c0.2,0.2,0.5,0.4,0.7,0.7
		c0.7,0.7,1.4,1.3,2,1.9c0.7,0.7,1.4,1.3,2,1.9c0.5,0.5,0.9,0.9,1.3,1.2c0.2,0.2,0.4,0.4,0.6,0.6c0.5,0.6,0.9,1.2,1.2,1.9
		c0.3,0.6,0.5,1.2,0.6,1.9c0.1,0.4,0.1,0.7,0.1,1.1c0,0.3,0,0.5,0,0.7c0,0.6-0.2,1.3-0.5,1.9c-0.1,0.1-0.1,0.2-0.2,0.3
		c-0.4,0.6-0.9,1.2-1.5,1.6c-0.6,0.4-1.3,0.6-2,0.6c-0.7,0-1.5-0.2-2.1-0.6c-0.3-0.2-0.5-0.4-0.7-0.6c-0.3-0.4-0.6-0.8-0.9-1.2
		c-0.3-0.6-0.6-1.2-0.7-1.9c-0.2-0.6-0.3-1.2-0.4-1.9c0-0.2-0.1-0.4-0.1-0.6l-6.4,0.5c0,0.1,0,0.1,0,0.2c0,0.6,0.1,1.3,0.2,1.9
		c0.1,0.6,0.2,1.3,0.4,1.9c0.2,0.6,0.4,1.3,0.6,1.9c0.1,0.2,0.1,0.3,0.2,0.5c0.2,0.5,0.5,0.9,0.7,1.4c0.4,0.7,0.9,1.3,1.4,1.9
		c0.4,0.4,0.8,0.8,1.2,1.1c0.4,0.3,0.8,0.6,1.2,0.8c1.6,0.8,3.4,1.2,5.3,1.2c1.3,0,2.5-0.1,3.7-0.5c0.6-0.2,1.1-0.4,1.6-0.7
		c0.9-0.5,1.8-1.1,2.5-1.9c0.2-0.2,0.3-0.4,0.5-0.6c0.3-0.4,0.6-0.8,0.8-1.3c0.3-0.6,0.6-1.2,0.9-1.9c0.2-0.6,0.4-1.2,0.5-1.9
		c0.1-0.6,0.2-1.2,0.2-1.9c0-0.4,0-0.7,0-1.1C1004.4-2254.6,1004.4-2254.8,1004.4-2255.1z"/>
	<path class="st3" d="M999.3-2264.8c-0.5-0.5-1.5-1.4-3.1-2.7c-0.5-0.4-1-0.8-1.4-1.2c0.8,0.9,1.7,1.7,2.7,2.5
		c1.1,0.9,1.9,1.6,2.5,2.1C999.8-2264.4,999.5-2264.6,999.3-2264.8z"/>
	<path class="st2" d="M995.5-2246.9c1.5,0,2.8-0.9,3.5-2.2c0.5-0.9,0.7-1.9,0.7-2.9c0-1.8-0.8-3.7-2.5-5.5c-0.3-0.3-0.6-0.5-0.9-0.8
		c1.2,1.3,1.8,3,1.8,4.7c0.1,1-0.2,2.1-0.7,2.9c-0.7,1.3-2,2.1-3.5,2.2c-0.7,0-1,0.2-1.6-0.2c0.1,0.2,0.3,0.4,0.5,0.6
		C993.4-2247.3,994.4-2246.9,995.5-2246.9z"/>
	<path class="st2" d="M989.9-2264.4C990-2264.4,990-2264.3,989.9-2264.4c-1.3-1.3-2.5-2.8-3.5-4.5c-1-1.9-1.5-4.1-1.5-6.2
		c0-4,1.4-7.1,4.1-9.2c1.8-1.3,4-2,6.2-1.9c2-0.1,4,0.5,5.8,1.6c0.3,0.2,0.6,0.4,0.9,0.6c-0.5-0.7-1.1-1.4-1.8-1.9
		c-1.9-1.3-4.1-2-6.4-2.1c-2.2-0.1-4.4,0.6-6.2,1.9c-2.7,2.1-4.1,5.1-4.1,9.2c0.1,2.3,0.7,4.6,1.8,6.7
		C986.5-2268,988.1-2266.1,989.9-2264.4L989.9-2264.4z"/>
	<path class="st2" d="M985.7-2247c-0.9-2-1.4-4.1-1.5-6.3l4.6-0.4c-0.1-0.4-0.1-0.9-0.2-1.3l-5.6,0.5c0.1,2.2,0.6,4.3,1.5,6.3
		c0.7,1.5,1.8,2.7,3.1,3.7C986.9-2245.3,986.2-2246.1,985.7-2247z"/>
	<path class="st2" d="M997.3-2279.8c0.5,0.7,0.8,1.7,0.8,2.6l1-0.2c-0.3-1.2-0.3-1-0.9-1.7C997.9-2279.4,997.6-2279.6,997.3-2279.8z
		"/>
	<path class="st3" d="M998.6-2265.5c-0.5-0.5-1.5-1.4-3.1-2.7c-0.5-0.4-1-0.8-1.4-1.2c0.8,0.9,1.7,1.7,2.7,2.5
		c1.1,0.9,1.9,1.6,2.5,2.1C999-2265.1,998.8-2265.3,998.6-2265.5z"/>
	<path class="st2" d="M994.7-2247.6c1.5,0,2.8-0.9,3.5-2.2c0.5-0.9,0.7-1.9,0.7-2.9c0-1.8-0.8-3.7-2.5-5.5c-0.3-0.3-0.6-0.5-0.9-0.8
		c1.3,1.4,2.1,3.2,2.2,5.1c0.1,1-0.2,2.1-0.7,2.9c-0.7,1.3-2,2.1-3.5,2.2c-0.7,0-1.4-0.2-2-0.6c0.1,0.2,0.3,0.4,0.5,0.6
		C992.6-2248.1,993.7-2247.6,994.7-2247.6L994.7-2247.6z"/>
	<path class="st2" d="M989.2-2265.1C989.2-2265.1,989.3-2265.1,989.2-2265.1c-1.3-1.3-2.5-2.8-3.5-4.5c-1-1.9-1.5-4.1-1.5-6.2
		c0-4,1.4-7.1,4.1-9.2c1.8-1.3,4-2,6.2-1.9c2.2-0.1,4.3,0.5,6.1,1.6c0.3,0.2,0.2,0.4,0.5,0.6c-0.5-0.7-1.1-1.4-1.8-1.9
		c-1.9-1.1-4-1.7-6.1-1.6c-2.2-0.1-4.4,0.6-6.2,1.9c-2.7,2.1-4.1,5.1-4.1,9.2c0,2.2,0.5,4.3,1.5,6.2
		C985.8-2268.8,987.3-2266.8,989.2-2265.1L989.2-2265.1z"/>
	<path class="st2" d="M985-2247.8c-0.9-2-1.4-4.1-1.5-6.3l5.3-0.4c-0.1-0.4-0.1-0.9-0.2-1.3l-6.4,0.5c0.1,2.2,0.6,4.3,1.5,6.3
		c0.7,1.5,1.7,2.9,3,4C986-2245.9,985.4-2246.8,985-2247.8L985-2247.8z"/>
	<path class="st2" d="M996.5-2280.5c0.7,1.1,1.1,2.4,1.2,3.7l1-0.2c-0.1-1.1-0.6-2-1.3-2.8C997.1-2280.1,996.9-2280.4,996.5-2280.5z
		"/>
	<path class="st4" d="M993.3-2287.5c2-0.1,4,0.5,5.7,1.5c1.2,0.8,2.3,1.9,2.9,3.2c0.7,1.3,1.1,2.7,1.3,4.2l-5,0.9
		c-0.2-1.4-0.7-2.7-1.6-3.9c-0.8-0.9-2-1.4-3.2-1.4c-1.4,0-2.8,0.7-3.4,2c-0.6,1.1-0.9,2.4-0.9,3.6c0.1,2.5,1.1,4.8,2.8,6.7
		c0.9,1.1,2,2.1,3.1,2.9c1.5,1.3,2.5,2.2,3,2.7l0,0l0,0c1.4,1.4,2.7,3,3.7,4.7c0.4,0.6,0.7,1.3,1,2c0.5,1.3,0.9,2.6,0.9,4
		c0.1,2.7-0.7,5.3-2.3,7.5l0,0c-1.1,1.4-2.5,2.4-4.2,2.9c-1.1,0.3-2.3,0.5-3.5,0.5c-2.2,0.1-4.3-0.5-6.1-1.8c-1.4-1.1-2.5-2.4-3.2-4
		c-0.7-1.7-1.2-3.5-1.3-5.3l4.9-0.4c0.2,2,0.9,3.8,2.2,5.3c0.8,0.9,1.9,1.5,3.2,1.5h0.2c1.7-0.1,3.3-1,4.1-2.5
		c0.6-1,0.9-2.2,0.8-3.4c0-2-0.9-4-2.7-6l0,0l0,0c-1.3-1.3-3.3-3.1-5.9-5.6c-1.8-1.6-3.3-3.5-4.6-5.6c-0.9-1.8-1.4-3.8-1.4-5.9
		c0-3.8,1.2-6.6,3.8-8.6C989.2-2286.9,991.2-2287.5,993.3-2287.5 M993.3-2288.2c-2.2-0.1-4.4,0.6-6.2,1.9c-2.7,2.1-4.1,5.1-4.1,9.2
		c0,2.2,0.5,4.3,1.5,6.2c1.3,2.1,2.9,4.1,4.7,5.8c2.6,2.5,4.6,4.4,6,5.6c1.7,1.8,2.5,3.7,2.5,5.5c0.1,1-0.2,2.1-0.7,2.9
		c-0.7,1.3-2,2.1-3.5,2.2h-0.2c-1,0-2-0.5-2.6-1.2c-1.1-1.2-1.8-3-2.1-5.6l-6.4,0.5c0.1,2.2,0.6,4.3,1.5,6.3
		c0.7,1.7,1.9,3.2,3.4,4.3c1.9,1.4,4.2,2,6.5,1.9c1.3,0,2.5-0.1,3.7-0.5c1.8-0.5,3.5-1.6,4.6-3.2c1.7-2.3,2.5-5.1,2.4-7.9
		c-0.1-1.5-0.4-2.9-1-4.3c-0.3-0.7-0.6-1.4-1-2.1c-1-1.8-2.3-3.4-3.8-4.9c-0.5-0.5-1.5-1.4-3.1-2.7c-1.1-0.9-2.1-1.8-3-2.8
		c-1.7-2.1-2.6-4.2-2.6-6.2c0-1.1,0.2-2.3,0.8-3.3c0.5-1,1.6-1.7,2.8-1.6c1-0.1,2,0.3,2.7,1.1c0.9,1.2,1.5,2.7,1.6,4.3l6.4-1.2
		c-0.1-1.8-0.6-3.5-1.5-5.1c-0.7-1.4-1.9-2.6-3.2-3.5C997.6-2287.7,995.4-2288.3,993.3-2288.2L993.3-2288.2z"/>
	<path class="st0" d="M897.5-2275.8l-2,0l-5.2-5.3v-6.7h20.9l5.1,5.3v6.7h-7.1v37.7h-6.7l-5.2-5.3L897.5-2275.8z"/>
	<path class="st1" d="M897.5-2278h-4.1l-2.9-3v-6.7h20.9l2.9,3v6.7h-7.1v37.7h-6.7l-2.9-3L897.5-2278z"/>
	<path class="st2" d="M890.4-2287.7v6.7h7.1v37.7h6.7v-37.7h7.1v-6.7H890.4z"/>
	<path class="st2" d="M891.7-2286.5h19.7v-1.2h-20.9v6.7h1.2V-2286.5z"/>
	<rect x="897.5" y="-2279.8" class="st2" width="1.2" height="36.4"/>
	<g transform="translate(954.43 233.668)" class="st5">
		<path class="st2" d="M-62-2519.4h18.7v-1.2h-19.9v5.5h1.2V-2519.4z"/>
		<rect x="-56.1" y="-2512.7" class="st2" width="1.2" height="35.2"/>
	</g>
	<path class="st4" d="M910.6-2287v5.2h-7.1v37.7h-5.2v-37.7h-7.1v-5.2L910.6-2287 M911.3-2287.7h-20.9v6.7h7.1v37.7h6.7v-37.7h7.1
		L911.3-2287.7z"/>
	<path class="st0" d="M965.7-2286.2c3.7,0,7.8,4.9,9.5,6.9c1.5,1.8,2.3,4.3,2.3,7.5v6.4c0,3.1-1.3,6-3.6,8l5,19.4h-7.2l-5.5-5.5
		l-2.7-11.2c-0.1,0-0.3,0-0.4-0.1v16.7h-6.7l-5.5-5.5v-44.4L965.7-2286.2z M971-2271.7c0-2.6-1.3-3.9-3.8-3.9h-4v14.2l3.2-1.5
		c1,0,2-0.4,2.7-1.1c0.7-0.7,1.1-1.7,1.1-2.7L971-2271.7z"/>
	<path class="st1" d="M964.5-2287c3.7,0,6.5,3.2,8.2,5.2c1.5,1.8,2.3,4.3,2.3,7.5v6.4c0,3.1-1.3,6-3.6,8l5,19.4h-7.2l-3-3l-3.4-13.7
		c-0.2,0-2.2,0-2.2,0v16.7h-6.7l-3-3v-44.4L964.5-2287z M968.5-2274.2c0-2.6-1.3-3.9-3.8-3.9h-4v14.2h4c1,0,2-0.4,2.7-1.1
		c0.7-0.7,1.1-1.7,1.1-2.7L968.5-2274.2L968.5-2274.2z"/>
	<path class="st2" d="M973.3-2243.9l-0.5-1.9l-0.5-1.9l-0.5-1.9l-0.5-1.9l-0.5-1.9l-0.5-1.9l-0.5-1.9l-0.5-1.9l-0.5-1.9l-0.5-1.9
		l-0.1-0.2c0.6-0.5,1.1-1,1.5-1.6c0.4-0.6,0.8-1.2,1.1-1.9c0.5-1.2,0.9-2.4,0.9-3.7c0-0.2,0-0.5,0-0.7v-6.8c0-0.6,0-1.3-0.1-1.9
		c-0.1-0.6-0.2-1.3-0.4-1.9c-0.2-0.7-0.4-1.3-0.7-1.9c-0.3-0.6-0.6-1.1-1.1-1.6c-0.1-0.1-0.2-0.2-0.3-0.3c-0.8-0.8-1.7-1.4-2.7-1.9
		c-1.7-0.7-3.4-1-5.2-0.9H951v44.4h6.7v-16.7h4.5l0.3,1.3l0.5,1.9l0.5,1.9l0.5,1.9l0.5,1.9l0.5,1.9l0.5,1.9l0.5,1.9l0.5,1.9l0.1,0.4
		h7.2L973.3-2243.9z M957.7-2270.1v-10.9h4c1.6,0,2.7,0.5,3.3,1.6c0.3,0.6,0.5,1.2,0.5,1.9c0,0.1,0,0.3,0,0.4v6.5c0,0.2,0,0.4,0,0.6
		c-0.1,0.7-0.4,1.3-0.8,1.9c-0.1,0.1-0.2,0.2-0.3,0.3c-0.7,0.7-1.7,1.1-2.7,1.1h-4L957.7-2270.1L957.7-2270.1z"/>
	<path class="st2" d="M952.2-2286.6h10.6c3,0,4.9,0.6,6.7,2c-0.1-0.1-0.1-0.1-0.2-0.2c-1.7-2.1-4-3-7.7-3H951v44.4h1.2V-2286.6z"/>
	<path class="st2" d="M963.4-2258.9h-0.9l3.8,15.5h0.9L963.4-2258.9z"/>
	<path class="st2" d="M965.7-2266.7c0.7-0.7,1.1-1.7,1.1-2.7v-6.5c0-1.7-0.6-2.8-1.7-3.4c0.3,0.7,0.5,1.4,0.4,2.2v6.5
		c0,1-0.4,2-1.1,2.7c-0.7,0.7-1.7,1.1-2.7,1.1h-2.8v1.2h4C964-2265.5,965-2266,965.7-2266.7z"/>
	<g transform="translate(1028.106 233.537)" class="st5">
		<path class="st2" d="M-75.1-2519.4h10.6c3,0,4.9,0.6,6.7,2c-0.1-0.1-0.1-0.1-0.2-0.2c-1.7-2.1-4-3-7.7-3h-10.6v43.2h1.2V-2519.4z"
			/>
		<path class="st2" d="M-64-2491.7h-0.9l3.8,14.2h0.9L-64-2491.7z"/>
		<path class="st2" d="M-61.7-2499.5c0.7-0.7,1.1-1.7,1.1-2.7v-6.5c0-1.7-0.6-2.8-1.7-3.4c0.3,0.7,0.5,1.4,0.4,2.2l-0.3,6.2
			c0,1-0.4,2-1.1,2.7c-0.7,0.7-1.7,1.1-2.7,1.1l-2.5,0.3v1.2h4C-63.4-2498.3-62.4-2498.7-61.7-2499.5z"/>
	</g>
	<path class="st4" d="M961.5-2287.1c3.5,0,6.1,1,7.7,2.8c1.4,1.7,2.1,4,2.1,7v6.4c0,2.8-1.2,5.6-3.3,7.4l-0.3,0.3l0.1,0.4l4.7,18.5
		h-5.7l-3.9-16.2l-0.1-0.6h-5.8v16.7h-5.2v-42.9L961.5-2287.1 M956.9-2266.1h4.8c1.2,0,2.4-0.5,3.2-1.4c0.9-0.9,1.3-2,1.3-3.3v-6.5
		c0-3-1.6-4.6-4.6-4.6h-4.8L956.9-2266.1 M961.5-2287.9H951v44.4h6.7v-16.7h4.5l4.1,16.7h7.2l-5-19.4c2.3-2,3.6-4.9,3.6-8v-6.4
		c0-3.2-0.8-5.7-2.3-7.5C968-2286.8,965.3-2287.9,961.5-2287.9L961.5-2287.9z M957.7-2266.8v-14.2h4c2.6,0,3.8,1.3,3.8,3.9v6.5
		c0,1-0.4,2-1.1,2.7c-0.7,0.7-1.7,1.1-2.7,1.1L957.7-2266.8z"/>
	<path class="st0" d="M843.1-2286.1c3.4,1,5.7,4.1,7.8,6.1c1.6,1.6,2.6,3.6,3,5.8c0.1,0.6,0.1,1.1,0.1,1.7v24.2
		c0,5.9-4.8,10.6-10.6,10.6c-2.8,0-5.5-1.1-7.5-3.1c-2.1-2.1-7.4-8.4-7.4-11.4l-0.1-21.6c0-2.9-1.2-7.6,4.3-12.2
		C836.2-2288.8,840.3-2286.9,843.1-2286.1z M847-2272.5c0-2.1-1.7-3.8-3.8-3.8c0,0,0,0,0,0c-1,0-2,0.4-2.7,1.1
		c-0.7,0.7-1.1,1.7-1.1,2.7v24.3c0,1,0.4,2,1.1,2.7c0.8,0.7,1.3,0.7,2.4,0.7c2.1,0,3.8-1.7,3.8-3.8c0,0,0,0,0,0L847-2272.5z"/>
	<path class="st1" d="M841.2-2285.4c5.9,0,10.6,4.7,10.6,10.6c0,0,0,0,0,0v24.2c0,5.9-4.8,10.6-10.6,10.6c-5.9,0-10.6-4.8-10.6-10.6
		v-24.2C830.6-2280.6,835.3-2285.4,841.2-2285.4z M844.8-2274.9c0-2.1-1.7-3.8-3.8-3.8c0,0,0,0,0,0c-1,0-2,0.4-2.7,1.1
		c-0.7,0.7-1.1,1.7-1.1,2.7v24.3c0,1,0.4,2,1.1,2.7c0.7,0.7,1.7,1.1,2.7,1.1c2.1,0,3.8-1.7,3.8-3.8c0,0,0,0,0,0V-2274.9z"/>
	<path class="st2" d="M848.7-2279.4c-0.1-0.6-0.3-1.3-0.5-1.9c-0.2-0.7-0.5-1.3-0.9-1.9c-0.4-0.7-0.9-1.3-1.5-1.9l-0.1-0.1
		c-0.7-0.7-1.4-1.3-2.3-1.7c-3.3-1.8-7.2-1.8-10.5,0c-0.8,0.5-1.6,1.1-2.2,1.7l-0.1,0.1c-0.6,0.6-1,1.2-1.5,1.9
		c-0.4,0.6-0.7,1.2-0.9,1.9c-0.2,0.6-0.4,1.2-0.5,1.9c-0.1,0.6-0.1,1.2-0.1,1.8v24.4c0,0.6,0.1,1.3,0.2,1.9c0.1,0.6,0.3,1.3,0.5,1.9
		c0.3,0.7,0.6,1.3,1,1.9c0.4,0.6,0.9,1.2,1.4,1.7l0.1,0.1c0.8,0.8,1.6,1.4,2.6,1.9c1.5,0.7,3.1,1.1,4.8,1.1c1.7,0,3.3-0.4,4.8-1.1
		c1-0.5,1.8-1.1,2.6-1.9c0,0,0.1-0.1,0.1-0.1c0.5-0.5,1-1.1,1.4-1.7c0.7-1.1,1.3-2.4,1.5-3.7c0.1-0.6,0.2-1.2,0.2-1.9v-24.4
		C848.9-2278.3,848.8-2278.9,848.7-2279.4L848.7-2279.4z M841.9-2275.7v22.2c0,0.1,0,0.2,0,0.2c0,0.7-0.2,1.3-0.6,1.9
		c-0.1,0.2-0.3,0.4-0.5,0.6c-0.7,0.7-1.7,1.1-2.7,1.1c-1,0-2-0.4-2.7-1.1c-0.2-0.2-0.4-0.4-0.5-0.6c-0.4-0.6-0.6-1.2-0.6-1.9
		c0-0.1,0-0.2,0-0.2v-24.3c0-1,0.4-2,1.1-2.7c0.7-0.7,1.7-1.1,2.7-1.1c0.5,0,1.1,0.1,1.6,0.3c0.4,0.2,0.8,0.5,1.2,0.8
		c0.3,0.3,0.6,0.7,0.8,1.1c0.2,0.5,0.4,1.1,0.4,1.6L841.9-2275.7L841.9-2275.7z"/>
	<path class="st2" d="M839.3-2248.4c2.1,0,3.8-1.7,3.8-3.8c0,0,0,0,0,0v-24.3c0-1-0.4-2-1.1-2.7c-0.2-0.2-0.4-0.4-0.7-0.6
		c0.4,0.6,0.6,1.3,0.6,2v24.3c0,2.1-1.7,3.8-3.8,3.8c0,0,0,0,0,0c-0.7,0-1.4-0.2-2.1-0.6c0.2,0.3,0.4,0.5,0.6,0.7
		C837.3-2248.8,838.3-2248.4,839.3-2248.4L839.3-2248.4z"/>
	<path class="st2" d="M828.9-2252.2v-24.2c0-5.9,4.7-10.6,10.6-10.6c2.5,0,4.9,0.9,6.9,2.5c-0.2-0.2-0.4-0.4-0.6-0.6
		c-4.1-4.1-10.9-4.1-15,0c-2,2-3.1,4.7-3.1,7.5v24.2c0,2.8,1.1,5.5,3.1,7.5c0.2,0.2,0.5,0.4,0.7,0.6
		C829.7-2247.2,828.8-2249.6,828.9-2252.2z"/>
	<g transform="translate(877.826 232.879)" class="st5">
		<path class="st2" d="M-37.8-2480.6c2.1,0,3.8-1.7,3.8-3.8c0,0,0,0,0,0v-24.3c0-1-0.4-2-1.1-2.7c-0.2-0.2-0.4-0.4-0.7-0.6
			c0.4,0.6,0.6,1.3,0.6,2l-0.3,24.1c0.1,0.9-0.3,1.8-1,2.4c-0.6,0.8-1.6,1.2-2.5,1.3c-0.7,0.1-1.4,0.1-2.1-0.2
			c0.2,0.3,0.4,0.5,0.6,0.7C-39.8-2480.9-38.8-2480.5-37.8-2480.6L-37.8-2480.6z"/>
		<path class="st2" d="M-48.2-2484.3v-24.2c0-5.9,4.7-10.6,10.6-10.6c2.6,0,4.1,0.3,6,2c-0.2-0.2-0.4-0.4-0.6-0.6
			c-2.1-2.1-4.2-2.7-7.1-2.7c-2.7-0.2-5.2,0.8-7.1,2.8c-2.1,2-3.3,4.7-3.2,7.6l0.2,24.6c0,2.7,1.1,5.3,3.2,7.1
			c0.2,0.2,0.5,0.4,0.7,0.6C-47.3-2479.5-48.2-2481.9-48.2-2484.3z"/>
	</g>
	<path class="st4" d="M838.2-2287.6c2.6-0.1,5.2,1,7,2.9c1.9,1.8,2.9,4.4,2.9,7v24.2c0.1,2.6-1,5.2-2.9,7c-1.8,1.9-4.4,2.9-7,2.9
		c-2.6,0.1-5.2-1-7-2.9c-1.9-1.8-2.9-4.4-2.9-7v-24.2C828.4-2283.1,832.8-2287.5,838.2-2287.6
		C838.2-2287.6,838.2-2287.6,838.2-2287.6 M838-2248.9c2.5,0,4.6-2,4.6-4.5c0,0,0,0,0,0v-24.3c0-2.5-2.1-4.6-4.6-4.6
		c-1.2,0-2.3,0.5-3.2,1.3c-0.9,0.8-1.4,2-1.4,3.2v24.3c0,1.2,0.5,2.4,1.4,3.2C835.6-2249.4,836.8-2248.9,838-2248.9 M838.2-2288.3
		c-5.9,0-10.6,4.8-10.6,10.6v24.2c0,2.8,1.1,5.5,3.1,7.5c2,2,4.7,3.2,7.5,3.1c5.9,0,10.6-4.7,10.6-10.6c0,0,0,0,0,0v-24.2
		C848.9-2283.5,844.1-2288.3,838.2-2288.3C838.3-2288.3,838.2-2288.3,838.2-2288.3L838.2-2288.3z M838-2249.7c-1,0-2-0.4-2.7-1.1
		c-0.7-0.7-1.1-1.7-1.1-2.7v-24.3c0-1,0.4-2,1.1-2.7c0.7-0.7,1.7-1.1,2.7-1.1c2.1,0,3.8,1.7,3.8,3.8c0,0,0,0,0,0v24.3
		C841.9-2251.4,840.2-2249.7,838-2249.7C838.1-2249.7,838.1-2249.7,838-2249.7z"/>
	<path class="st0" d="M809.8-2238.1h-6.8l-5.1-5.1l5.2-39.3l13.9-5.2l5.2,5.2l0,6.7h-12.4v12.1l3.8-5.1l5.2,5.2v6.7h-9L809.8-2238.1
		L809.8-2238.1z"/>
	<path class="st1" d="M807.6-2240.3h-6.7l-2.9-2.9l2.9-41.5l16.1-2.9l2.9,2.9v6.7h-12.4v12.1l6.1-2.9l2.9,2.9v6.7h-9L807.6-2240.3
		L807.6-2240.3z"/>
	<rect x="797.9" y="-2243.9" class="st6" width="6.7" height="0.6"/>
	<rect x="797.9" y="-2287.7" class="st6" width="19.1" height="0.8"/>
	<path class="st2" d="M797.9-2286.9v43h6.7v-18.2h9v-6.7h-9v-12.1H817v-6H797.9z"/>
	<path class="st2" d="M799.2-2286.5H817v-1.2h-19.1v44.4h1.2V-2286.5z"/>
	<rect x="805.9" y="-2268.9" class="st2" width="7.8" height="1.2"/>
	<g transform="translate(841.909 233.716)" class="st5">
		<path class="st2" d="M-42-2519.4h16.6v-1.2h-17.8v43.2h1.2V-2519.4z"/>
		<rect x="-35.3" y="-2501.8" class="st2" width="6.5" height="1.2"/>
	</g>
	<path class="st4" d="M816.2-2287v5.2h-12.4v13.6h9v5.2h-9v18.9h-5.2v-42.9H816.2 M817-2287.7h-19.1v44.4h6.7v-18.9h9v-6.7h-9v-12.1
		H817L817-2287.7L817-2287.7z"/>
	<path class="st0" d="M926.1-2238l-5-5.4l5.2-39l13.9-5.4l5.2,5.6v6.5H933v12.1l3.9-5.4l5.2,5.6v6.5h-9v12.1l7.2-5.4l5.2,5.6v6.5
		L926.1-2238L926.1-2238z"/>
	<path class="st1" d="M924-2240.4l-2.8-3l2.8-41.4l16.3-3l2.8,3v6.7h-12.4v12.1l6.2-3l2.8,3v6.7h-9v12.1l9.6-3l2.8,3v6.7L924-2240.4
		L924-2240.4z"/>
	<path class="st2" d="M921.2-2287.8v44.4h19.1v-6.7h-12.4v-12.1h9v-6.7h-9v-12.1h12.4v-6.7H921.2z"/>
	<path class="st2" d="M922.4-2286.6h17.8v-1.2h-19.1v44.4h1.2V-2286.6z"/>
	<rect x="929.1" y="-2269" class="st2" width="7.8" height="1.2"/>
	<rect x="929.1" y="-2250.1" class="st2" width="11.1" height="1.2"/>
	<g transform="translate(991.866 233.56)" class="st5">
		<path class="st2" d="M-68.7-2519.4h16.6v-1.2h-17.8v43.2h1.2L-68.7-2519.4z"/>
		<rect x="-62" y="-2501.8" class="st2" width="6.5" height="1.2"/>
		<rect x="-62" y="-2482.9" class="st2" width="9.9" height="1.2"/>
	</g>
	<path class="st4" d="M939.5-2287.1v5.2h-12.4v13.6h9v5.2h-9v13.6h12.4v5.2h-17.6v-42.9L939.5-2287.1 M940.2-2287.8h-19.1v44.4h19.1
		v-6.7h-12.4v-12.1h9v-6.7h-9v-12.1h12.4L940.2-2287.8L940.2-2287.8z"/>
	<path class="st0" d="M886.1-2249.2c0.1,2.8-0.7,5.6-2.4,7.9c-1.1,1.5-2.8,2.6-4.6,3.2c-1.2,0.4-2.5,0.5-3.7,0.5
		c-2.3,0.1-4.6-0.6-6.5-1.9c-1.9-1.5-3.6-3.3-4.8-5.5c-0.8-1.8,0-2.8-0.1-5.2l1.2-5.6l5.1,4.7c0.3,2.6,1,4.8,2.1,6
		c0.8,0.9,1.7,0.8,2.8,0.7c1.4,0,2.6-0.8,3.2-2c0.6-0.7,0.9-1.7,1-2.6c0-1.8-0.8-3.7-2.5-5.5c-1.3-1.3-3.1-3.3-5.7-5.8
		c-2.2-2.2-4-3.9-4.9-5.6c-1-1.9-1.5-4.1-1.5-6.2c0-4,0.4-8.6,3.1-10.7c1.7-1.2,4.7-0.3,7.2-0.3c2.4,0,0.6-2.4,2.5-1.8
		c1.8,0.6,5.9,5.4,6.7,6.9c0.9,1.6,1.4,3.3,1.6,5.1l-6.1,1.1c0,0-5.4-5.1-5.4-5.1s2.1-0.3,0.9-0.2c-1.2,0-2.2,0.7-2.8,1.7
		c-0.5,1-0.8,2.1-0.8,3.3c0,2,0.9,4.1,2.6,6.2c0.7,0.8,0.5,0.2,1.8,1.3c1.6,1.3,3.8,3.7,4.3,4.3c1.5,1.4,2.8,3.1,3.8,4.9
		c0.4,0.7,0.7,1.4,1,2.1C885.7-2252.1,886-2250.7,886.1-2249.2z"/>
	<path class="st1" d="M884.1-2251.4c0.1,2.8-0.7,5.6-2.4,7.9c-1.1,1.5-2.8,2.6-4.6,3.2c-1.2,0.4-2.5,0.5-3.7,0.5
		c-2.3,0.1-4.6-0.6-6.5-1.9c-1.5-1.1-2.7-2.6-3.4-4.3c-0.9-2-1.4-4.1-1.5-6.3l3.2-3.4l3.2,2.9c0.3,2.6,1,4.5,2.1,5.6
		c0.7,0.8,1.7,1.3,2.8,1.2c1.5,0,2.8-0.9,3.5-2.2c0.5-0.9,0.7-1.9,0.7-2.9c0.1-2-0.7-4-2.1-5.5c-1.3-1.3-3.7-3.1-6.4-5.6
		c-1.8-1.7-3.4-3.6-4.7-5.8c-1-1.9-1.5-4.1-1.5-6.2c0-4,1.4-7.1,4.1-9.2c1.8-1.3,4-2,6.2-1.9c2.4,0,3-0.7,4.7,0.4
		c1.8,1.3,3.4,2.8,4.6,4.7c0.8,1.6,1.3,3.3,1.5,5.1l-6.4,1.2c0-0.1-3.2-3-3.2-3s2-0.7,1.6-1.3c-0.7-0.8-1.7-1.2-2.7-1.1
		c-1.2,0-2.3,0.6-2.8,1.6c-0.5,1-0.8,2.1-0.8,3.3c0,2,1.3,4.1,3,6.2c0.9,1,1.9,2,3,2.8c1.6,1.3,2.6,2.2,3.1,2.7
		c1.5,1.4,2.8,3.1,3.8,4.9c0.4,0.7,0.7,1.4,1,2.1C884-2254.2,884.2-2252.8,884.1-2251.4z"/>
	<path class="st2" d="M880.9-2255.1c-0.1-0.6-0.2-1.3-0.4-1.9c-0.2-0.5-0.3-1.1-0.6-1.6c0-0.1-0.1-0.2-0.1-0.3
		c-0.3-0.6-0.6-1.2-0.9-1.8c0,0,0-0.1,0-0.1c-0.4-0.6-0.8-1.3-1.2-1.9c-0.5-0.6-1-1.2-1.5-1.9c-0.3-0.4-0.7-0.7-1-1.1
		c-0.2-0.2-0.5-0.5-0.8-0.8c-0.5-0.5-1.3-1.1-2.2-1.9c0,0,0,0-0.1-0.1c-0.8-0.7-1.5-1.3-2-1.8c-0.4-0.4-0.7-0.7-1-1
		c-0.2-0.3-0.5-0.6-0.7-0.8c-0.4-0.6-0.8-1.2-1.1-1.9c-0.3-0.6-0.5-1.2-0.7-1.9c-0.1-0.5-0.2-1.1-0.2-1.6c0-0.1,0-0.2,0-0.3
		c0-0.6,0.1-1.3,0.3-1.9c0.1-0.4,0.3-0.8,0.5-1.1c0.2-0.3,0.3-0.5,0.6-0.7c0.6-0.6,1.4-0.9,2.2-0.9c0.9,0,1.8,0.3,2.5,0.9
		c0.1,0.1,0.1,0.1,0.2,0.2c0.4,0.5,0.7,1.1,1,1.7c0.2,0.6,0.4,1.2,0.5,1.9c0,0.2,0.1,0.5,0.1,0.7l3.9-0.7l2.5-0.5
		c0-0.5-0.1-1-0.2-1.4c-0.1-0.6-0.3-1.3-0.5-1.9c-0.2-0.6-0.5-1.3-0.8-1.8c0,0,0,0,0,0c-0.4-0.7-0.8-1.3-1.3-1.9
		c-0.5-0.6-1.2-1.1-1.9-1.6c-0.2-0.1-0.3-0.2-0.5-0.3c-1.7-0.9-3.7-1.3-5.6-1.3c-1.9,0-3.7,0.4-5.4,1.3c-0.3,0.2-0.6,0.4-0.9,0.6
		c-0.5,0.4-1,0.8-1.4,1.3c-0.5,0.6-0.9,1.2-1.3,1.9c-0.3,0.6-0.6,1.2-0.8,1.9c-0.2,0.6-0.3,1.2-0.4,1.9c-0.1,0.6-0.1,1.2-0.2,1.9
		c0,0.1,0,0.3,0,0.4c0,0.5,0,1,0.1,1.5c0.1,0.6,0.2,1.3,0.3,1.9c0.2,0.6,0.4,1.3,0.6,1.9c0.1,0.4,0.3,0.7,0.5,1
		c0.1,0.3,0.3,0.6,0.5,0.8c0.4,0.6,0.9,1.3,1.4,1.9c0.5,0.6,1,1.2,1.7,1.9c0.4,0.4,0.8,0.8,1.2,1.2c0.2,0.2,0.5,0.4,0.7,0.7
		c0.7,0.7,1.4,1.3,2,1.9c0.7,0.7,1.4,1.3,2,1.9c0.5,0.5,0.9,0.9,1.3,1.2c0.2,0.2,0.4,0.4,0.6,0.6c0.5,0.6,0.9,1.2,1.2,1.9
		c0.3,0.6,0.5,1.2,0.6,1.9c0.1,0.4,0.1,0.7,0.1,1.1c0,0.3,0,0.5,0,0.7c0,0.6-0.2,1.3-0.5,1.9c-0.1,0.1-0.1,0.2-0.2,0.3
		c-0.4,0.6-0.9,1.2-1.5,1.6c-0.6,0.4-1.3,0.6-2,0.6c-0.7,0-1.5-0.2-2.1-0.6c-0.3-0.2-0.5-0.4-0.7-0.6c-0.3-0.4-0.6-0.8-0.9-1.2
		c-0.3-0.6-0.6-1.2-0.7-1.9c-0.2-0.6-0.3-1.2-0.4-1.9c0-0.2-0.1-0.4-0.1-0.6l-6.4,0.5c0,0.1,0,0.1,0,0.2c0,0.6,0.1,1.3,0.2,1.9
		c0.1,0.6,0.2,1.3,0.4,1.9c0.2,0.6,0.4,1.3,0.6,1.9c0.1,0.2,0.1,0.3,0.2,0.5c0.2,0.5,0.5,0.9,0.7,1.4c0.4,0.7,0.9,1.3,1.4,1.9
		c0.4,0.4,0.8,0.8,1.2,1.1c0.4,0.3,0.8,0.6,1.2,0.8c1.6,0.8,3.4,1.2,5.3,1.2c1.3,0,2.5-0.1,3.7-0.5c0.6-0.2,1.1-0.4,1.6-0.7
		c0.9-0.5,1.8-1.1,2.5-1.9c0.2-0.2,0.3-0.4,0.5-0.6c0.3-0.4,0.6-0.8,0.8-1.3c0.3-0.6,0.6-1.2,0.9-1.9c0.2-0.6,0.4-1.2,0.5-1.9
		c0.1-0.6,0.2-1.2,0.2-1.9c0-0.4,0-0.7,0-1.1C881-2254.6,880.9-2254.8,880.9-2255.1z"/>
	<path class="st3" d="M875.9-2264.8c-0.5-0.5-1.5-1.4-3.1-2.7c-0.5-0.4-1-0.8-1.4-1.2c0.8,0.9,1.7,1.7,2.7,2.5
		c1.1,0.9,1.9,1.6,2.5,2.1C876.3-2264.4,876.1-2264.6,875.9-2264.8z"/>
	<path class="st2" d="M872-2246.9c1.5,0,2.8-0.9,3.5-2.2c0.5-0.9,0.7-1.9,0.7-2.9c0-1.8-0.8-3.7-2.5-5.5c-0.3-0.3-0.6-0.5-0.9-0.8
		c1.2,1.3,1.8,3,1.8,4.7c0.1,1-0.2,2.1-0.7,2.9c-0.7,1.3-2,2.1-3.5,2.2c-0.7,0-1,0.2-1.6-0.2c0.1,0.2,0.3,0.4,0.5,0.6
		C869.9-2247.3,870.9-2246.9,872-2246.9z"/>
	<path class="st2" d="M866.5-2264.4C866.5-2264.4,866.5-2264.3,866.5-2264.4c-1.3-1.3-2.5-2.8-3.5-4.5c-1-1.9-1.5-4.1-1.5-6.2
		c0-4,1.4-7.1,4.1-9.2c1.8-1.3,4-2,6.2-1.9c2-0.1,4,0.5,5.8,1.6c0.3,0.2,0.6,0.4,0.9,0.6c-0.5-0.7-1.1-1.4-1.8-1.9
		c-1.9-1.3-4.1-2-6.4-2.1c-2.2-0.1-4.4,0.6-6.2,1.9c-2.7,2.1-4.1,5.1-4.1,9.2c0.1,2.3,0.7,4.6,1.8,6.7
		C863-2268,864.6-2266.1,866.5-2264.4L866.5-2264.4z"/>
	<path class="st2" d="M862.3-2247c-0.9-2-1.4-4.1-1.5-6.3l4.6-0.4c-0.1-0.4-0.1-0.9-0.2-1.3l-5.6,0.5c0.1,2.2,0.6,4.3,1.5,6.3
		c0.7,1.5,1.8,2.7,3.1,3.7C863.4-2245.3,862.8-2246.1,862.3-2247z"/>
	<path class="st2" d="M873.8-2279.8c0.5,0.7,0.8,1.7,0.8,2.6l1-0.2c-0.3-1.2-0.3-1-0.9-1.7C874.4-2279.4,874.1-2279.6,873.8-2279.8
		L873.8-2279.8z"/>
	<path class="st3" d="M875.1-2265.5c-0.5-0.5-1.5-1.4-3.1-2.7c-0.5-0.4-1-0.8-1.4-1.2c0.8,0.9,1.7,1.7,2.7,2.5
		c1.1,0.9,1.9,1.6,2.5,2.1C875.5-2265.1,875.3-2265.3,875.1-2265.5z"/>
	<path class="st2" d="M871.3-2247.6c1.5,0,2.8-0.9,3.5-2.2c0.5-0.9,0.7-1.9,0.7-2.9c0-1.8-0.8-3.7-2.5-5.5c-0.3-0.3-0.6-0.5-0.9-0.8
		c1.3,1.4,2.1,3.2,2.2,5.1c0.1,1-0.2,2.1-0.7,2.9c-0.7,1.3-2,2.1-3.5,2.2c-0.7,0-1.4-0.2-2-0.6c0.1,0.2,0.3,0.4,0.5,0.6
		C869.2-2248.1,870.2-2247.6,871.3-2247.6L871.3-2247.6z"/>
	<path class="st2" d="M865.7-2265.1C865.8-2265.1,865.8-2265.1,865.7-2265.1c-1.3-1.3-2.5-2.8-3.5-4.5c-1-1.9-1.5-4.1-1.5-6.2
		c0-4,1.4-7.1,4.1-9.2c1.8-1.3,4-2,6.2-1.9c2.2-0.1,4.3,0.5,6.1,1.6c0.3,0.2,0.2,0.4,0.5,0.6c-0.5-0.7-1.1-1.4-1.8-1.9
		c-1.9-1.1-4-1.7-6.1-1.6c-2.2-0.1-4.4,0.6-6.2,1.9c-2.7,2.1-4.1,5.1-4.1,9.2c0,2.2,0.5,4.3,1.5,6.2
		C862.3-2268.8,863.9-2266.8,865.7-2265.1L865.7-2265.1z"/>
	<path class="st2" d="M861.5-2247.8c-0.9-2-1.4-4.1-1.5-6.3l5.3-0.4c-0.1-0.4-0.1-0.9-0.2-1.3l-6.4,0.5c0.1,2.2,0.6,4.3,1.5,6.3
		c0.7,1.5,1.7,2.9,3,4C862.6-2245.9,862-2246.8,861.5-2247.8L861.5-2247.8z"/>
	<path class="st2" d="M873.1-2280.5c0.7,1.1,1.1,2.4,1.2,3.7l1-0.2c-0.2-1-0.7-2-1.3-2.8C873.7-2280.1,873.4-2280.4,873.1-2280.5z"
		/>
	<path class="st4" d="M869.8-2287.5c2-0.1,4,0.5,5.7,1.5c1.2,0.8,2.3,1.9,2.9,3.2c0.7,1.3,1.1,2.7,1.3,4.2l-5,0.9
		c-0.2-1.4-0.7-2.7-1.6-3.9c-0.8-0.9-2-1.4-3.2-1.4c-1.4,0-2.8,0.7-3.4,2c-0.6,1.1-0.9,2.4-0.9,3.6c0.1,2.5,1.1,4.8,2.8,6.7
		c0.9,1.1,2,2.1,3.1,2.9c1.5,1.3,2.5,2.2,3,2.7l0,0l0,0c1.4,1.4,2.7,3,3.7,4.7c0.4,0.6,0.7,1.3,1,2c0.5,1.3,0.9,2.6,0.9,4
		c0.1,2.7-0.7,5.3-2.3,7.5l0,0c-1.1,1.4-2.5,2.4-4.2,2.9c-1.1,0.3-2.3,0.5-3.5,0.5c-2.2,0.1-4.3-0.5-6.1-1.8c-1.4-1.1-2.5-2.4-3.2-4
		c-0.7-1.7-1.2-3.5-1.3-5.3l4.9-0.4c0.2,2,0.9,3.8,2.2,5.3c0.8,0.9,1.9,1.5,3.2,1.5h0.2c1.7-0.1,3.3-1,4.1-2.5
		c0.6-1,0.9-2.2,0.8-3.4c0-2-0.9-4-2.7-6l0,0l0,0c-1.3-1.3-3.3-3.1-5.9-5.6c-1.8-1.6-3.3-3.5-4.6-5.6c-0.9-1.8-1.4-3.8-1.4-5.9
		c0-3.8,1.2-6.6,3.8-8.6C865.7-2286.9,867.8-2287.5,869.8-2287.5 M869.8-2288.2c-2.2-0.1-4.4,0.6-6.2,1.9c-2.7,2.1-4.1,5.1-4.1,9.2
		c0,2.2,0.5,4.3,1.5,6.2c1.3,2.1,2.9,4.1,4.7,5.8c2.6,2.5,4.6,4.4,6,5.6c1.7,1.8,2.5,3.7,2.5,5.5c0.1,1-0.2,2.1-0.7,2.9
		c-0.7,1.3-2,2.1-3.5,2.2h-0.2c-1,0-2-0.5-2.6-1.2c-1.1-1.2-1.8-3-2.1-5.6l-6.4,0.5c0.1,2.2,0.6,4.3,1.5,6.3
		c0.7,1.7,1.9,3.2,3.4,4.3c1.9,1.4,4.2,2,6.5,1.9c1.3,0,2.5-0.1,3.7-0.5c1.8-0.5,3.5-1.6,4.6-3.2c1.7-2.3,2.5-5.1,2.4-7.9
		c-0.1-1.5-0.4-2.9-1-4.3c-0.3-0.7-0.6-1.4-1-2.1c-1-1.8-2.3-3.4-3.8-4.9c-0.5-0.5-1.5-1.4-3.1-2.7c-1.1-0.9-2.1-1.8-3-2.8
		c-1.7-2.1-2.6-4.2-2.6-6.2c0-1.1,0.2-2.3,0.8-3.3c0.5-1,1.6-1.7,2.8-1.6c1-0.1,2,0.3,2.7,1.1c0.9,1.2,1.5,2.7,1.6,4.3l6.4-1.2
		c-0.1-1.8-0.6-3.5-1.5-5.1c-0.7-1.4-1.9-2.6-3.2-3.5C874.1-2287.7,872-2288.3,869.8-2288.2L869.8-2288.2z"/>
	<g>
		<g>
			<polygon class="st1" points="929.9,-2233.7 935.3,-2233.7 935.3,-2216.8 942.6,-2216.8 942.6,-2233.7 948,-2233.7 948,-2194.3 
				942.6,-2194.3 942.6,-2212.2 935.3,-2212.2 935.3,-2194.3 929.9,-2194.3 			"/>
			<polygon class="st7" points="929.9,-2233.7 935.3,-2233.7 935.3,-2216.8 942.6,-2216.8 942.6,-2233.7 948,-2233.7 948,-2194.3 
				942.6,-2194.3 942.6,-2212.2 935.3,-2212.2 935.3,-2194.3 929.9,-2194.3 			"/>
		</g>
		<g>
			<polygon class="st4" points="927.9,-2233.7 933.3,-2233.7 933.3,-2216.8 940.6,-2216.8 940.6,-2233.7 946,-2233.7 946,-2194.3 
				940.6,-2194.3 940.6,-2212.2 933.3,-2212.2 933.3,-2194.3 927.9,-2194.3 			"/>
			<polygon class="st8" points="927.9,-2233.7 933.3,-2233.7 933.3,-2216.8 940.6,-2216.8 940.6,-2233.7 946,-2233.7 946,-2194.3 
				940.6,-2194.3 940.6,-2212.2 933.3,-2212.2 933.3,-2194.3 927.9,-2194.3 			"/>
		</g>
	</g>
	<g>
		<g>
			<path class="st1" d="M950.8-2223.7c0-5.5,1.8-10.4,9.2-10.4c7,0,9.3,3.6,9.3,9.8v19.9c0,5.5-1.8,10.4-9.3,10.4
				c-7,0-9.2-3.6-9.2-9.8V-2223.7z M956.2-2203.4c0,3.4,1.5,5.2,3.8,5.2c2.3,0,3.8-1.8,3.8-5.2v-20.7c0-3.9-1.3-5.7-3.8-5.7
				c-2.4,0-3.8,1.8-3.8,5.7V-2203.4z"/>
			<path class="st7" d="M950.8-2223.7c0-5.5,1.8-10.4,9.2-10.4c7,0,9.3,3.6,9.3,9.8v19.9c0,5.5-1.8,10.4-9.3,10.4
				c-7,0-9.2-3.6-9.2-9.8V-2223.7z M956.2-2203.4c0,3.4,1.5,5.2,3.8,5.2c2.3,0,3.8-1.8,3.8-5.2v-20.7c0-3.9-1.3-5.7-3.8-5.7
				c-2.4,0-3.8,1.8-3.8,5.7V-2203.4z"/>
		</g>
		<g>
			<path class="st4" d="M948.8-2223.7c0-5.5,1.8-10.4,9.2-10.4c7,0,9.3,3.6,9.3,9.8v19.9c0,5.5-1.8,10.4-9.3,10.4
				c-7,0-9.2-3.6-9.2-9.8V-2223.7z M954.2-2203.4c0,3.4,1.5,5.2,3.8,5.2c2.3,0,3.8-1.8,3.8-5.2v-20.7c0-3.9-1.3-5.7-3.8-5.7
				c-2.4,0-3.8,1.8-3.8,5.7V-2203.4z"/>
			<path class="st8" d="M948.8-2223.7c0-5.5,1.8-10.4,9.2-10.4c7,0,9.3,3.6,9.3,9.8v19.9c0,5.5-1.8,10.4-9.3,10.4
				c-7,0-9.2-3.6-9.2-9.8V-2223.7z M954.2-2203.4c0,3.4,1.5,5.2,3.8,5.2c2.3,0,3.8-1.8,3.8-5.2v-20.7c0-3.9-1.3-5.7-3.8-5.7
				c-2.4,0-3.8,1.8-3.8,5.7V-2203.4z"/>
		</g>
	</g>
	<g>
		<g>
			<path class="st1" d="M972.1-2233.7h9c7.4,0,8.8,2,8.8,11.1s-1.4,11.1-8.8,11.1h-3.5v17.1h-5.5L972.1-2233.7L972.1-2233.7z
				 M977.5-2216h2.8c3.7,0,4.1-0.6,4.1-6.5c0-5.9-0.4-6.5-4.1-6.5h-2.8V-2216z"/>
			<path class="st7" d="M972.1-2233.7h9c7.4,0,8.8,2,8.8,11.1s-1.4,11.1-8.8,11.1h-3.5v17.1h-5.5L972.1-2233.7L972.1-2233.7z
				 M977.5-2216h2.8c3.7,0,4.1-0.6,4.1-6.5c0-5.9-0.4-6.5-4.1-6.5h-2.8V-2216z"/>
		</g>
		<g>
			<path class="st4" d="M970.1-2233.7h9c7.4,0,8.8,2,8.8,11.1s-1.4,11.1-8.8,11.1h-3.5v17.1h-5.5L970.1-2233.7L970.1-2233.7z
				 M975.5-2216h2.8c3.7,0,4.1-0.6,4.1-6.5c0-5.9-0.4-6.5-4.1-6.5h-2.8V-2216z"/>
			<path class="st8" d="M970.1-2233.7h9c7.4,0,8.8,2,8.8,11.1s-1.4,11.1-8.8,11.1h-3.5v17.1h-5.5L970.1-2233.7L970.1-2233.7z
				 M975.5-2216h2.8c3.7,0,4.1-0.6,4.1-6.5c0-5.9-0.4-6.5-4.1-6.5h-2.8V-2216z"/>
		</g>
	</g>
	<g>
		<g>
			<polygon class="st1" points="992.2,-2233.7 1007,-2233.7 1007,-2229.1 997.6,-2229.1 997.6,-2216.8 1006.5,-2216.8 
				1006.5,-2212.2 997.6,-2212.2 997.6,-2198.9 1007,-2198.9 1007,-2194.3 992.2,-2194.3 			"/>
			<polygon class="st7" points="992.2,-2233.7 1007,-2233.7 1007,-2229.1 997.6,-2229.1 997.6,-2216.8 1006.5,-2216.8 
				1006.5,-2212.2 997.6,-2212.2 997.6,-2198.9 1007,-2198.9 1007,-2194.3 992.2,-2194.3 			"/>
		</g>
		<g>
			<polygon class="st4" points="990.2,-2233.7 1005,-2233.7 1005,-2229.1 995.6,-2229.1 995.6,-2216.8 1004.5,-2216.8 
				1004.5,-2212.2 995.6,-2212.2 995.6,-2198.9 1005,-2198.9 1005,-2194.3 990.2,-2194.3 			"/>
			<polygon class="st8" points="990.2,-2233.7 1005,-2233.7 1005,-2229.1 995.6,-2229.1 995.6,-2216.8 1004.5,-2216.8 
				1004.5,-2212.2 995.6,-2212.2 995.6,-2198.9 1005,-2198.9 1005,-2194.3 990.2,-2194.3 			"/>
		</g>
	</g>
	<path class="st4" d="M829.6-2239.6c0.7,0.4,0.8,1.1,0.4,2.1l0,0c-0.3,1-1.1,1.7-1.9,1.2c-3.4-2.2-5.1-6.2-4.3-10.1
		c0.2-1,0.8-1.9,1.6-2.5l0,0c0.5-0.2,0.7,0.4,0.5,1.3C825.4-2244.4,826.8-2241.2,829.6-2239.6L829.6-2239.6z"/>
	<path class="st4" d="M834.2-2238.2c-0.7-0.6-1.4,0-1.8,1.1l0,0c-0.4,1.1-0.3,2,0.3,2.4c2.5,1.7,4.2,4.3,4.9,7.3
		c0.2,0.9,0.6,1.4,0.9,1.1l0,0c0.5-0.7,0.6-1.6,0.5-2.5C838.6-2232.4,836.9-2235.8,834.2-2238.2z"/>
	<path class="st4" d="M835.3-2241.3c-1.2,1.4-3,1.6-4,0.5c-1-1.1-0.9-3,0.3-4.4c1.2-1.4,3-1.6,4-0.5
		C836.6-2244.6,836.5-2242.6,835.3-2241.3z"/>
	<path class="st4" d="M833.8-2228.2c-2.7,0.3-5.5,0-8-1c-0.5,5.9,1.9,11.7,6.5,15.5c0.4,0.4,0.9,0.5,1.4,0.3
		c0.2-0.2,0.3-0.5,0.2-0.8c-2.4-2.3-4-5.2-4.6-8.4c-0.2-1.1,0.1-2,0.5-2c0.4,0,0.9,0.7,1.2,1.6c1,2.6,2.8,4.9,5.1,6.5
		c0.3,0.1,0.6-0.1,0.8-0.3c0.2-0.3,0.1-0.8-0.1-1C834.1-2220.7,833-2224.5,833.8-2228.2z"/>
	<path class="st4" d="M833-2224.7c-2.7,0.2-5.3-0.7-7.3-2.5c-0.2-0.1-0.2-0.3-0.2-0.5c0.6-3.2,0.9-6.2,2-9.6
		c0.4-1.1,1.2-2.2,1.7-2.3c1.7-0.2,3.4,0.2,4.7,1.2c0.6,0.7,0.9,1.7,0.8,2.6c-0.3,2-1.5-0.1-0.9,10.4c0,0.2-0.1,0.4-0.3,0.5
		C833.3-2224.8,833.8-2224.8,833-2224.7z"/>
	<path class="st4" d="M824.8-2244.8c0.2,0,0.4-0.1,0.6-0.1c-5.6-18.6,5.1-27.4-0.6-46c-0.3,0.1-0.6,0.1-0.9,0.2
		C829.6-2272.2,819.1-2263.4,824.8-2244.8z"/>
	<circle class="st9" cx="825.1" cy="-2308.8" r="16.1"/>
	<path class="st9" d="M822.3-2290.8l2.5-0.6l-0.9-1.1l-1.2,0.3L822.3-2290.8z"/>
	<g>
		<g>
			<polygon class="st1" points="800.9,-2328.7 806.2,-2328.7 806.2,-2295 815,-2295 815,-2290.6 800.9,-2290.6 			"/>
			<polygon class="st7" points="800.9,-2328.7 806.2,-2328.7 806.2,-2295 815,-2295 815,-2290.6 800.9,-2290.6 			"/>
		</g>
		<g>
			<polygon class="st4" points="798.9,-2328.7 804.2,-2328.7 804.2,-2295 813,-2295 813,-2290.6 798.9,-2290.6 			"/>
			<polygon class="st8" points="798.9,-2328.7 804.2,-2328.7 804.2,-2295 813,-2295 813,-2290.6 798.9,-2290.6 			"/>
		</g>
	</g>
	<g>
		<g>
			<polygon class="st1" points="836.2,-2328.7 841.4,-2328.7 846.9,-2298.4 847,-2298.4 852.5,-2328.7 857.8,-2328.7 850,-2290.6 
				843.9,-2290.6 			"/>
			<polygon class="st7" points="836.2,-2328.7 841.4,-2328.7 846.9,-2298.4 847,-2298.4 852.5,-2328.7 857.8,-2328.7 850,-2290.6 
				843.9,-2290.6 			"/>
		</g>
		<g>
			<polygon class="st4" points="834.2,-2328.7 839.4,-2328.7 844.9,-2298.4 845,-2298.4 850.5,-2328.7 855.8,-2328.7 848,-2290.6 
				841.9,-2290.6 			"/>
			<polygon class="st8" points="834.2,-2328.7 839.4,-2328.7 844.9,-2298.4 845,-2298.4 850.5,-2328.7 855.8,-2328.7 848,-2290.6 
				841.9,-2290.6 			"/>
		</g>
	</g>
	<g>
		<g>
			<polygon class="st1" points="860.2,-2328.7 874.5,-2328.7 874.5,-2324.2 865.4,-2324.2 865.4,-2312.3 874,-2312.3 874,-2307.9 
				865.4,-2307.9 865.4,-2295 874.5,-2295 874.5,-2290.6 860.2,-2290.6 			"/>
			<polygon class="st7" points="860.2,-2328.7 874.5,-2328.7 874.5,-2324.2 865.4,-2324.2 865.4,-2312.3 874,-2312.3 874,-2307.9 
				865.4,-2307.9 865.4,-2295 874.5,-2295 874.5,-2290.6 860.2,-2290.6 			"/>
		</g>
		<g>
			<polygon class="st4" points="858.2,-2328.7 872.5,-2328.7 872.5,-2324.2 863.4,-2324.2 863.4,-2312.3 872,-2312.3 872,-2307.9 
				863.4,-2307.9 863.4,-2295 872.5,-2295 872.5,-2290.6 858.2,-2290.6 			"/>
			<polygon class="st8" points="858.2,-2328.7 872.5,-2328.7 872.5,-2324.2 863.4,-2324.2 863.4,-2312.3 872,-2312.3 872,-2307.9 
				863.4,-2307.9 863.4,-2295 872.5,-2295 872.5,-2290.6 858.2,-2290.6 			"/>
		</g>
	</g>
	<path class="st10" d="M832.6-2316.9c2.6,1.8,2.6,4,2.6,4c-0.7-1.4-1.8-2.5-3.1-3.4c-1.3-1-2.9-1.7-4.5-1.8
		C827.6-2318.1,829.8-2318.9,832.6-2316.9z"/>
</g>
</svg>
