<svg xmlns="http://www.w3.org/2000/svg" viewBox="66 2526 257.484 143.203"><defs><style>.a{fill:#fccd00;}.a,.f{opacity:0.5;}.b{fill:#6d6e71;}.c{fill:#fed115;}.d{fill:#2775bb;}.e,.i{fill:#fff;}.g{fill:#f4f1ed;}.h{fill:#f15f57;}.i{stroke:#fff;stroke-miterlimit:10;stroke-width:3.31px;}</style></defs><g transform="translate(-775 2334)"><path class="a" d="M1952.617,434.666a15.185,15.185,0,0,1-2.929,9.661,10.661,10.661,0,0,1-5.608,3.838,15.139,15.139,0,0,1-4.531.6,12.863,12.863,0,0,1-7.939-2.367,22.473,22.473,0,0,1-5.8-6.636c-1.028-2.224.012-3.42-.155-6.3l1.518-6.8,6.193,5.775c.347,3.145,1.22,5.894,2.547,7.3.98,1.064,2.092.956,3.348.9a4.336,4.336,0,0,0,3.934-2.415,5.134,5.134,0,0,0,1.16-3.192q0-3.372-3.061-6.684c-1.614-1.53-3.766-4.065-6.983-7.114-2.7-2.618-4.866-4.711-5.99-6.791a16.271,16.271,0,0,1-1.805-7.592c0-4.914.478-10.522,3.778-13.056,2.044-1.518,5.751-.407,8.764-.407,2.905,0,.765-2.882,3.1-2.152,2.2.682,7.174,6.552,8.154,8.358a15.607,15.607,0,0,1,1.9,6.217l-7.473,1.363c-.012-.06-6.552-6.217-6.552-6.217s2.523-.407,1.136-.3a4.069,4.069,0,0,0-3.443,2.045,7.653,7.653,0,0,0-.945,3.97q0,3.707,3.192,7.544c.8.98.586.263,2.2,1.59,1.9,1.578,4.567,4.555,5.177,5.177a27.833,27.833,0,0,1,4.663,5.954,24.8,24.8,0,0,1,1.255,2.547,15,15,0,0,1,1.2,5.179Z" transform="translate(-854.148 -154.99)"/><path class="b" d="M1934.862,427.5a15.185,15.185,0,0,1-2.929,9.661,10.662,10.662,0,0,1-5.607,3.838,15.14,15.14,0,0,1-4.531.6,12.862,12.862,0,0,1-7.939-2.367,13.224,13.224,0,0,1-4.161-5.285,21.543,21.543,0,0,1-1.793-7.652l3.922-4.149,3.85,3.587q.52,4.717,2.5,6.851a4.175,4.175,0,0,0,3.36,1.518,5.058,5.058,0,0,0,4.269-2.63,6.525,6.525,0,0,0,.825-3.587,9.262,9.262,0,0,0-2.535-6.7c-1.614-1.53-4.543-3.814-7.76-6.863a31.112,31.112,0,0,1-5.739-7.03,16.268,16.268,0,0,1-1.806-7.592q0-7.371,4.962-11.179a12.289,12.289,0,0,1,7.592-2.284c2.905,0,3.694-.813,5.763.478a21.313,21.313,0,0,1,5.6,5.691,15.647,15.647,0,0,1,1.793,6.253l-7.808,1.423c-.012-.072-3.838-3.623-3.838-3.623s2.475-.9,1.937-1.554a4.022,4.022,0,0,0-3.24-1.339,3.72,3.72,0,0,0-3.408,1.985,7.656,7.656,0,0,0-.945,3.97c0,2.475,1.578,4.986,3.707,7.544a26.583,26.583,0,0,0,3.623,3.455c1.9,1.578,3.145,2.69,3.754,3.324a27.494,27.494,0,0,1,4.651,5.954,24.773,24.773,0,0,1,1.255,2.547,12.994,12.994,0,0,1,.676,5.155Z" transform="translate(-838.783 -150.48)"/><path class="c" d="M1902.778,398.2a14.605,14.605,0,0,0-.466-2.284,18.4,18.4,0,0,0-.67-1.913c-.048-.12-.1-.239-.155-.359a23.46,23.46,0,0,0-1.1-2.188.417.417,0,0,0-.06-.1,23.671,23.671,0,0,0-1.483-2.272c-.562-.753-1.184-1.518-1.877-2.284-.4-.43-.8-.873-1.244-1.3-.239-.251-.574-.574-1.016-.968-.658-.6-1.542-1.351-2.654-2.284-.024-.024-.06-.048-.084-.072-.968-.8-1.793-1.53-2.463-2.2-.442-.442-.837-.861-1.16-1.255-.287-.347-.55-.693-.8-1.028a14.85,14.85,0,0,1-1.363-2.272,10.213,10.213,0,0,1-.8-2.284,9.218,9.218,0,0,1-.227-1.961,2.673,2.673,0,0,1,.012-.311,8.4,8.4,0,0,1,.347-2.284,6.211,6.211,0,0,1,.6-1.375,4.416,4.416,0,0,1,.682-.9,3.684,3.684,0,0,1,2.726-1.088,4.077,4.077,0,0,1,3,1.088,2.378,2.378,0,0,1,.239.251,7.412,7.412,0,0,1,1.172,2.021,10.936,10.936,0,0,1,.61,2.284c.048.287.084.574.12.873l4.782-.873,3.025-.55c-.048-.6-.132-1.172-.227-1.734a15.045,15.045,0,0,0-.586-2.272,14.059,14.059,0,0,0-.98-2.248c0-.012-.012-.024-.024-.036a12.253,12.253,0,0,0-1.6-2.272,10.67,10.67,0,0,0-2.284-1.925c-.2-.132-.418-.239-.622-.359a14.113,14.113,0,0,0-6.827-1.578,12.892,12.892,0,0,0-6.516,1.578,10.421,10.421,0,0,0-1.076.705,11.965,11.965,0,0,0-1.71,1.578,11.571,11.571,0,0,0-1.59,2.272,12.95,12.95,0,0,0-.956,2.284,13.655,13.655,0,0,0-.5,2.272,19.761,19.761,0,0,0-.191,2.284c0,.167-.012.323-.012.49a17.592,17.592,0,0,0,.1,1.782,17.873,17.873,0,0,0,.383,2.284,15.331,15.331,0,0,0,.753,2.272c.179.43.371.849.586,1.267.179.335.383.67.6,1.016a26.2,26.2,0,0,0,1.65,2.272c.6.729,1.267,1.495,2.021,2.284.454.478.945.968,1.459,1.471.287.275.574.538.849.8.861.825,1.674,1.578,2.4,2.284.9.849,1.7,1.6,2.4,2.272.6.562,1.124,1.064,1.59,1.507.239.263.466.514.67.777a12.273,12.273,0,0,1,1.483,2.272,8.467,8.467,0,0,1,.777,2.284,7.5,7.5,0,0,1,.131,1.363c0,.323-.012.622-.036.909a6.332,6.332,0,0,1-.562,2.284c-.072.132-.143.263-.215.383a5.936,5.936,0,0,1-1.793,1.889,4.736,4.736,0,0,1-2.475.741,4.016,4.016,0,0,1-2.5-.741,6.36,6.36,0,0,1-.873-.765,6.856,6.856,0,0,1-1.052-1.507,11.511,11.511,0,0,1-.885-2.284,18.538,18.538,0,0,1-.466-2.272c-.036-.263-.072-.526-.1-.789l-7.76.562a1.432,1.432,0,0,0,.024.227c.06.777.143,1.542.263,2.272a22.058,22.058,0,0,0,.49,2.284,19.54,19.54,0,0,0,.777,2.272c.084.2.167.407.251.6a16.016,16.016,0,0,0,.9,1.686,12.9,12.9,0,0,0,1.758,2.272,12.223,12.223,0,0,0,1.506,1.327,11.168,11.168,0,0,0,1.519.956,13.69,13.69,0,0,0,6.409,1.411,15.228,15.228,0,0,0,4.531-.61,12.45,12.45,0,0,0,2-.813,10.041,10.041,0,0,0,3-2.284c.215-.239.418-.49.61-.741a14.046,14.046,0,0,0,1-1.53,15.167,15.167,0,0,0,1.04-2.284,15.433,15.433,0,0,0,.6-2.272,17.3,17.3,0,0,0,.263-2.284c.024-.43.036-.861.024-1.3C1902.838,398.875,1902.814,398.54,1902.778,398.2Z" transform="translate(-810.61 -125.75)"/><path class="d" d="M2009.076,561.106c-.6-.634-1.853-1.734-3.754-3.324-.634-.526-1.208-1.016-1.722-1.483a30.13,30.13,0,0,0,3.24,3c1.315,1.1,2.32,1.961,3.013,2.607C2009.6,561.644,2009.339,561.37,2009.076,561.106Z" transform="translate(-923.041 -300.429)"/><path class="c" d="M1981.222,676.129a5.059,5.059,0,0,0,4.269-2.63,6.527,6.527,0,0,0,.825-3.587q0-3.372-3.061-6.684c-.323-.311-.693-.658-1.088-1.028a7.91,7.91,0,0,1,2.164,5.739,6.525,6.525,0,0,1-.825,3.587,5.059,5.059,0,0,1-4.268,2.63c-.861.036-1.2.263-1.937-.227a6.184,6.184,0,0,0,.55.682,4.229,4.229,0,0,0,3.371,1.518Z" transform="translate(-899.886 -393.667)"/><path class="c" d="M1895.6,389.748c.036.036.084.072.12.108a27.281,27.281,0,0,1-4.34-5.631,16.279,16.279,0,0,1-1.817-7.592q0-7.371,4.962-11.179a12.366,12.366,0,0,1,7.592-2.284,12.242,12.242,0,0,1,7.006,1.913,10.111,10.111,0,0,1,1.088.789,8.686,8.686,0,0,0-2.152-2.272,15.344,15.344,0,0,0-7.808-2.5,12.372,12.372,0,0,0-7.592,2.284q-4.968,3.8-4.962,11.179a18.883,18.883,0,0,0,2.152,8.154,31.667,31.667,0,0,0,5.751,7.031Z" transform="translate(-820.999 -128.568)"/><path class="c" d="M1886.8,705.733a21.539,21.539,0,0,1-1.793-7.652l5.572-.466c-.1-.514-.167-1.04-.227-1.614l-6.851.562a21.036,21.036,0,0,0,1.793,7.652,12.637,12.637,0,0,0,3.79,4.531,12.9,12.9,0,0,1-2.284-3.013Z" transform="translate(-817.301 -423.426)"/><path class="c" d="M2028.6,443.9a5.01,5.01,0,0,1,.957,3.133l1.231-.227c-.323-1.4-.406-1.172-1.148-2.068a3.652,3.652,0,0,0-1.04-.838Z" transform="translate(-945.052 -201.468)"/><path class="d" d="M2001.476,553.506c-.6-.634-1.853-1.734-3.754-3.324-.634-.526-1.208-1.016-1.722-1.483a30.125,30.125,0,0,0,3.24,3c1.315,1.1,2.32,1.961,3.013,2.607C2001.99,554.033,2001.739,553.77,2001.476,553.506Z" transform="translate(-916.35 -293.738)"/><path class="c" d="M1973.71,668.529a5.058,5.058,0,0,0,4.268-2.63,6.525,6.525,0,0,0,.825-3.587q0-3.372-3.061-6.684c-.323-.311-.693-.658-1.088-1.028a9.619,9.619,0,0,1,2.63,6.193,6.529,6.529,0,0,1-.825,3.587,5.059,5.059,0,0,1-4.269,2.63,3.9,3.9,0,0,1-2.391-.682,6.239,6.239,0,0,0,.55.682,4.175,4.175,0,0,0,3.361,1.519Z" transform="translate(-893.282 -386.976)"/><path class="c" d="M1890.641,386.286c.036.036.084.072.12.108a27.282,27.282,0,0,1-4.34-5.631,16.273,16.273,0,0,1-1.8-7.592q0-7.371,4.962-11.179a12.367,12.367,0,0,1,7.593-2.284,13.808,13.808,0,0,1,7.461,1.937c.383.239.287.478.634.765a8.688,8.688,0,0,0-2.152-2.272,13.826,13.826,0,0,0-7.461-1.937,12.372,12.372,0,0,0-7.592,2.284q-4.968,3.8-4.962,11.179a16.378,16.378,0,0,0,1.805,7.592,31.379,31.379,0,0,0,5.737,7.03Z" transform="translate(-816.946 -126.015)"/><path class="c" d="M1879.2,698.132a21.541,21.541,0,0,1-1.793-7.652l6.48-.466c-.1-.514-.167-1.04-.227-1.614l-7.76.562a21.043,21.043,0,0,0,1.793,7.652,13.5,13.5,0,0,0,3.6,4.842,14.537,14.537,0,0,1-2.093-3.324Z" transform="translate(-810.61 -416.734)"/><path class="c" d="M2021,436.3a10.231,10.231,0,0,1,1.411,4.5l1.231-.227a5.906,5.906,0,0,0-1.6-3.431A4.275,4.275,0,0,0,2021,436.3Z" transform="translate(-938.361 -194.777)"/><path class="e" d="M1889.215,359.009a12.947,12.947,0,0,1,6.97,1.805,10.346,10.346,0,0,1,3.587,3.886,14.413,14.413,0,0,1,1.59,5.07l-6.038,1.1a9.659,9.659,0,0,0-1.973-4.7,4.873,4.873,0,0,0-3.934-1.662,4.642,4.642,0,0,0-4.185,2.427,8.524,8.524,0,0,0-1.076,4.436,12.823,12.823,0,0,0,3.4,8.118,28.361,28.361,0,0,0,3.742,3.575c1.865,1.554,3.1,2.642,3.671,3.252l.012.012.012.012a26.927,26.927,0,0,1,4.508,5.751,22.616,22.616,0,0,1,1.2,2.439,13.956,13.956,0,0,1,1.136,4.842,14.365,14.365,0,0,1-2.75,9.1h0a9.712,9.712,0,0,1-5.141,3.5,14.572,14.572,0,0,1-4.256.562,12.02,12.02,0,0,1-7.389-2.188,12.366,12.366,0,0,1-3.874-4.926,19.944,19.944,0,0,1-1.638-6.433l5.99-.43a11.778,11.778,0,0,0,2.618,6.492,5.076,5.076,0,0,0,3.838,1.817h.227a5.97,5.97,0,0,0,5.01-3.049,7.368,7.368,0,0,0,.969-4.077c0-2.475-1.112-4.926-3.3-7.3l-.024-.024-.024-.024q-2.421-2.3-7.234-6.851a30.064,30.064,0,0,1-5.56-6.8,15.409,15.409,0,0,1-1.71-7.174c0-4.663,1.506-8.083,4.591-10.45a11.5,11.5,0,0,1,7.042-2.1m0-.909a12.372,12.372,0,0,0-7.592,2.284q-4.962,3.8-4.962,11.179a16.375,16.375,0,0,0,1.805,7.592,30.942,30.942,0,0,0,5.739,7.03q4.824,4.573,7.246,6.863c2.044,2.212,3.061,4.448,3.061,6.684a6.523,6.523,0,0,1-.825,3.587,5.059,5.059,0,0,1-4.269,2.63h-.191a4.181,4.181,0,0,1-3.168-1.518c-1.327-1.411-2.152-3.695-2.5-6.851l-7.76.562a21.051,21.051,0,0,0,1.793,7.652,13.317,13.317,0,0,0,4.161,5.285,12.831,12.831,0,0,0,7.939,2.367,15.225,15.225,0,0,0,4.531-.61,10.5,10.5,0,0,0,5.608-3.838,15.248,15.248,0,0,0,2.929-9.661,14.717,14.717,0,0,0-1.208-5.177,20.7,20.7,0,0,0-1.255-2.547,27.8,27.8,0,0,0-4.651-5.954c-.6-.634-1.853-1.734-3.754-3.324a26.569,26.569,0,0,1-3.623-3.455q-3.193-3.838-3.192-7.544a7.651,7.651,0,0,1,.945-3.97,3.72,3.72,0,0,1,3.407-1.985,3.945,3.945,0,0,1,3.228,1.339,9.439,9.439,0,0,1,1.9,5.177l7.807-1.423a15.687,15.687,0,0,0-1.793-6.253,11.155,11.155,0,0,0-3.9-4.221,14.118,14.118,0,0,0-7.463-1.9Z" transform="translate(-810.521 -125.926)"/><path class="a" d="M949.78,377.587l-2.4-.012-6.277-6.4V363h25.443l6.229,6.4v8.19h-8.621v45.829h-8.106l-6.277-6.409Z" transform="translate(12.422 -130.241)"/><path class="b" d="M949.7,374.849h-5.022L941.1,371.19V363h25.443l3.575,3.659v8.19H961.5V420.69h-8.154l-3.575-3.659Z" transform="translate(12.422 -130.241)"/><path class="c" d="M941.1,340.9v8.19h8.668v45.829h8.142V349.09h8.633V340.9Z" transform="translate(12.422 -108.141)"/><path class="c" d="M942.618,342.418h23.925V340.9H941.1v8.19h1.518Z" transform="translate(12.422 -108.141)"/><rect class="c" width="1.518" height="44.322" transform="translate(962.19 242.468)"/><g class="f" transform="translate(954.43 233.668)"><path class="c" d="M950.218,350.018h22.705V348.5H948.7v6.672h1.518Z" transform="translate(-948.7 -348.5)"/><rect class="c" width="1.518" height="42.804" transform="translate(8.668 9.709)"/></g><path class="e" d="M965.635,363.909v6.373h-8.621V416.11h-6.325V370.281h-8.668v-6.373h23.614m.909-.909H941.1v8.19h8.668v45.829h8.154V371.19h8.621Z" transform="translate(12.422 -130.241)"/><path class="a" d="M1575.323,363.861c4.543,0,9.458,5.954,11.586,8.453q2.8,3.282,2.8,9.147V389.3a12.6,12.6,0,0,1-4.352,9.7l6.038,23.59h-8.812l-6.66-6.66-3.264-13.571a1.044,1.044,0,0,1-.442-.12v20.35h-8.154l-6.66-6.66V361.9Zm6.457,17.719q0-4.7-4.651-4.7h-4.914v17.29l3.922-1.782a4.46,4.46,0,0,0,3.3-1.375,4.567,4.567,0,0,0,1.363-3.324Z" transform="translate(-530.191 -129.272)"/><path class="b" d="M1573.652,362.916c4.543,0,7.891,3.838,10.02,6.337q2.8,3.282,2.8,9.147v7.843a12.6,12.6,0,0,1-4.352,9.7l6.038,23.59h-8.812l-3.611-3.611-4.125-16.7c-.227,0-2.642-.048-2.642-.048v20.35h-8.154l-3.611-3.611V361.9Zm4.89,15.615q0-4.7-4.651-4.7h-4.914V391.12h4.914a4.46,4.46,0,0,0,3.3-1.375,4.567,4.567,0,0,0,1.363-3.324V378.53Z" transform="translate(-530.015 -129.272)"/><path class="c" d="M1584.5,415.217l-.586-2.284-.586-2.272-.586-2.284-.586-2.272-.586-2.284-.586-2.272-.586-2.284-.586-2.272-.586-2.284-.586-2.272-.072-.287a14.241,14.241,0,0,0,1.829-2,12.35,12.35,0,0,0,1.375-2.272,12.662,12.662,0,0,0,1.124-4.555c.012-.287.024-.586.024-.885v-8.226a19.765,19.765,0,0,0-.156-2.284,16.226,16.226,0,0,0-.454-2.272,11.342,11.342,0,0,0-.9-2.284,9.835,9.835,0,0,0-1.291-1.925c-.1-.12-.2-.227-.311-.347a9.8,9.8,0,0,0-3.324-2.284,16.049,16.049,0,0,0-6.373-1.124H1557.3v54.055h8.154V395.4h5.428l.4,1.6.55,2.272.55,2.284.55,2.272.55,2.284.55,2.272.55,2.284.55,2.272.55,2.284.132.538h8.812Zm-19.047-31.876V370.033h4.914c1.973,0,3.324.634,4.041,1.913a5.138,5.138,0,0,1,.6,2.284c.012.167.012.335.012.5v7.9a6.738,6.738,0,0,1-.048.7,4.4,4.4,0,0,1-1,2.272,2.715,2.715,0,0,1-.311.335,4.461,4.461,0,0,1-3.3,1.375h-4.914v-3.982Z" transform="translate(-530.103 -129.096)"/><path class="c" d="M1558.818,363.418h12.853c3.695,0,6,.765,8.094,2.427-.072-.084-.131-.167-.2-.251-2.128-2.5-4.866-3.7-9.41-3.7H1557.3V415.93h1.518Z" transform="translate(-530.103 -129.272)"/><path class="c" d="M1675.148,656.2H1674l4.567,18.831h1.148Z" transform="translate(-632.85 -388.384)"/><path class="c" d="M1646.414,463.888a4.544,4.544,0,0,0,1.363-3.324v-7.891c0-2.08-.693-3.467-2.057-4.173a5.794,5.794,0,0,1,.538,2.654v7.891a4.567,4.567,0,0,1-1.363,3.324,4.46,4.46,0,0,1-3.3,1.375h-3.4v1.518h4.914A4.416,4.416,0,0,0,1646.414,463.888Z" transform="translate(-601.33 -205.518)"/><g class="f" transform="translate(1028.106 233.537)"><path class="c" d="M1566.418,371.018h12.853c3.695,0,6,.765,8.094,2.427-.072-.084-.132-.167-.2-.251-2.128-2.5-4.866-3.7-9.41-3.7H1564.9v52.513h1.518Z" transform="translate(-1564.9 -369.5)"/><path class="c" d="M1682.748,663.8H1681.6l4.567,17.313h1.148Z" transform="translate(-1667.647 -628.612)"/><path class="c" d="M1654.014,471.676a4.567,4.567,0,0,0,1.363-3.324v-7.891c0-2.08-.693-3.467-2.056-4.161a5.792,5.792,0,0,1,.538,2.654l-.37,7.521a4.568,4.568,0,0,1-1.363,3.324,4.46,4.46,0,0,1-3.3,1.375l-3.025.371v1.518h4.914A4.517,4.517,0,0,0,1654.014,471.676Z" transform="translate(-1636.127 -445.922)"/></g><path class="e" d="M1570.153,362.809c4.244,0,7.377,1.16,9.314,3.432,1.71,2.009,2.583,4.878,2.583,8.549v7.843A11.661,11.661,0,0,1,1578,391.66l-.406.371.132.526,5.739,22.454h-6.923l-4.771-19.656-.167-.693h-7.054v20.35h-6.325v-52.2h11.933m-5.608,25.611h5.823a5.326,5.326,0,0,0,3.946-1.65,5.45,5.45,0,0,0,1.614-3.958v-7.891c0-3.623-1.973-5.608-5.572-5.608h-5.823v19.106m5.62-26.519H1557.3v54.031h8.154v-20.35h5.428l4.938,20.35h8.812l-6.038-23.59a12.615,12.615,0,0,0,4.352-9.7V374.8q0-5.865-2.8-9.147c-2.114-2.51-5.446-3.753-9.993-3.753Zm-4.7,25.611V370.222h4.914c3.109,0,4.651,1.566,4.651,4.7v7.891a4.568,4.568,0,0,1-1.363,3.324,4.46,4.46,0,0,1-3.3,1.375Z" transform="translate(-530.103 -129.272)"/><path class="a" d="M326.891,368.17c4.089,1.267,6.947,4.938,9.457,7.461a12.728,12.728,0,0,1,3.638,7.081,11.607,11.607,0,0,1,.14,2.066v29.5a12.935,12.935,0,0,1-22.083,9.147c-2.511-2.523-9.015-10.247-9.015-13.81l-.072-26.256c0-3.587-1.423-9.194,5.213-14.8C318.486,364.894,323.507,367.13,326.891,368.17Zm4.735,16.44a4.653,4.653,0,0,0-4.663-4.663,4.567,4.567,0,0,0-3.324,1.363,4.46,4.46,0,0,0-1.375,3.3v29.58a4.46,4.46,0,0,0,1.375,3.3c.921.909,1.626.849,2.917.849a4.654,4.654,0,0,0,4.663-4.663Z" transform="translate(569.097 -133.354)"/><path class="b" d="M345,387.3a12.92,12.92,0,0,1,12.937,12.937v29.5a12.919,12.919,0,1,1-25.838,0v-29.5A12.92,12.92,0,0,1,345,387.3Zm4.436,12.758a4.653,4.653,0,0,0-4.663-4.663,4.567,4.567,0,0,0-3.324,1.363,4.46,4.46,0,0,0-1.375,3.3v29.58a4.46,4.46,0,0,0,1.375,3.3,4.567,4.567,0,0,0,3.324,1.363,4.653,4.653,0,0,0,4.663-4.663Z" transform="translate(548.607 -151.635)"/><path class="c" d="M327.87,368.256a11.931,11.931,0,0,0-.574-2.272,12.933,12.933,0,0,0-1.1-2.284,13.169,13.169,0,0,0-1.781-2.272l-.143-.143a12.774,12.774,0,0,0-2.75-2.128,13.141,13.141,0,0,0-12.793,0A13.284,13.284,0,0,0,306,361.273l-.167.167a13.859,13.859,0,0,0-1.793,2.272,11.807,11.807,0,0,0-1.1,2.284,11.931,11.931,0,0,0-.574,2.272,14.283,14.283,0,0,0-.167,2.164v29.712a14.221,14.221,0,0,0,.215,2.284,12.075,12.075,0,0,0,.646,2.272,12.555,12.555,0,0,0,1.184,2.284,13.24,13.24,0,0,0,1.71,2.092l.179.179a12.934,12.934,0,0,0,3.145,2.284,12.674,12.674,0,0,0,5.811,1.339,12.511,12.511,0,0,0,5.8-1.339,13.055,13.055,0,0,0,3.168-2.284c.06-.048.108-.108.167-.155a13.668,13.668,0,0,0,1.746-2.116,12.277,12.277,0,0,0,1.829-4.555,14.085,14.085,0,0,0,.215-2.284V370.42a11.694,11.694,0,0,0-.144-2.164Zm-8.322,4.555v27.033c0,.1-.012.2-.012.3a4.478,4.478,0,0,1-.753,2.284,4.759,4.759,0,0,1-.6.717,4.5,4.5,0,0,1-3.3,1.363,4.567,4.567,0,0,1-3.324-1.363,5.693,5.693,0,0,1-.61-.717,4.346,4.346,0,0,1-.765-2.284c0-.1-.012-.2-.012-.3v-29.6a4.5,4.5,0,0,1,1.387-3.3,4.632,4.632,0,0,1,3.312-1.363,4.509,4.509,0,0,1,1.9.395,4.746,4.746,0,0,1,1.4.968,4.552,4.552,0,0,1,.921,1.3,4.6,4.6,0,0,1,.43,2v2.571Z" transform="translate(574.932 -125.393)"/><path class="c" d="M391.329,481.813a4.654,4.654,0,0,0,4.663-4.663V447.57a4.494,4.494,0,0,0-1.363-3.3,4.445,4.445,0,0,0-.849-.67,4.5,4.5,0,0,1,.682,2.451v29.58a4.653,4.653,0,0,1-4.663,4.663,4.581,4.581,0,0,1-2.5-.7,4.3,4.3,0,0,0,.693.861,4.614,4.614,0,0,0,3.337,1.363Z" transform="translate(500.007 -201.204)"/><path class="c" d="M303.818,401.352v-29.5a12.915,12.915,0,0,1,21.235-9.9c-.227-.263-.454-.514-.7-.765a12.913,12.913,0,0,0-22.048,9.147v29.5a12.55,12.55,0,0,0,3.754,9.147c.275.275.562.538.849.789A12.489,12.489,0,0,1,303.818,401.352Z" transform="translate(574.844 -125.31)"/><g class="f" transform="translate(877.826 232.879)"><path class="c" d="M398.929,489.413a4.654,4.654,0,0,0,4.663-4.663V455.17a4.5,4.5,0,0,0-1.363-3.3,4.45,4.45,0,0,0-.849-.67,4.5,4.5,0,0,1,.682,2.451l-.371,29.293a3.522,3.522,0,0,1-1.2,2.9,4.279,4.279,0,0,1-3.1,1.578,4.435,4.435,0,0,1-2.5-.251,4.3,4.3,0,0,0,.693.861,4.578,4.578,0,0,0,3.345,1.376Z" transform="translate(-384.51 -440.774)"/><path class="c" d="M309.746,408.071v-29.5a12.92,12.92,0,0,1,12.889-12.937c3.216,0,4.962.359,7.317,2.379-.227-.263-.454-.514-.7-.765-2.511-2.535-5.081-3.252-8.668-3.252a11.075,11.075,0,0,0-8.633,3.348A12.687,12.687,0,0,0,308,376.566l.215,29.975a11.6,11.6,0,0,0,3.838,8.668c.275.275.562.538.849.789a11.431,11.431,0,0,1-3.156-7.927Z" transform="translate(-308 -364)"/></g><path class="e" d="M315.189,358.309a11.425,11.425,0,0,1,8.513,3.527,11.543,11.543,0,0,1,3.5,8.5v29.5a11.425,11.425,0,0,1-3.527,8.513,11.543,11.543,0,0,1-8.5,3.5,11.354,11.354,0,0,1-8.489-3.527,11.578,11.578,0,0,1-3.491-8.5v-29.5a12,12,0,0,1,11.992-12.016m-.215,47a5.551,5.551,0,0,0,5.572-5.572v-29.58a5.6,5.6,0,0,0-9.529-3.958,5.327,5.327,0,0,0-1.65,3.946v29.58a5.327,5.327,0,0,0,1.65,3.946,5.427,5.427,0,0,0,3.958,1.638m.215-47.909a12.92,12.92,0,0,0-12.888,12.94v29.5a12.55,12.55,0,0,0,3.754,9.147,12.345,12.345,0,0,0,9.147,3.79,12.92,12.92,0,0,0,12.937-12.937v-29.5A12.92,12.92,0,0,0,315.189,357.4Zm-.215,47a4.567,4.567,0,0,1-3.324-1.363,4.46,4.46,0,0,1-1.375-3.3v-29.58a4.46,4.46,0,0,1,1.375-3.3,4.567,4.567,0,0,1,3.324-1.363,4.653,4.653,0,0,1,4.663,4.663v29.58a4.653,4.653,0,0,1-4.663,4.663Z" transform="translate(574.844 -125.31)"/><path class="a" d="M14.491,423.732H6.265L0,417.467l6.337-47.8L23.2,363.4l6.337,6.337.012,8.118H14.491V392.6l4.651-6.265,6.337,6.325v8.13h-11v22.944Z" transform="translate(841 -130.593)"/><path class="b" d="M11.829,421.054H3.687L.1,417.467l3.587-50.48L23.3,363.4l3.587,3.587v8.19H11.829v14.742l7.4-3.587,3.587,3.587v8.19h-11v22.944Z" transform="translate(840.912 -130.593)"/><rect class="g" width="8.154" height="0.753" transform="translate(841 286.121)"/><rect class="g" width="23.195" height="0.945" transform="translate(841 232.807)"/><path class="c" d="M0,349.2v52.369H8.154V379.378H19.142v-8.19H8.154V356.446H23.2V349.2Z" transform="translate(841 -115.448)"/><path class="c" d="M1.518,342.818H23.2V341.3H0v54.067H1.518Z" transform="translate(841 -108.493)"/><rect class="c" width="9.481" height="1.518" transform="translate(850.673 255.74)"/><g class="f" transform="translate(841.909 233.716)"><path class="c" d="M9.118,350.418h20.17V348.9H7.6v52.548H9.118Z" transform="translate(-7.6 -348.9)"/><rect class="c" width="7.963" height="1.518" transform="translate(9.673 22.932)"/></g><path class="e" d="M22.287,364.309v6.373H7.246v16.56H18.234v6.373H7.246v22.944H.909v-52.25H22.287m.909-.909H0v54.067H8.154V394.523h11v-8.19h-11V371.59H23.207V363.4Z" transform="translate(841 -130.593)"/><path class="a" d="M1260.15,422.743l-6.05-6.576,6.277-47.491,16.93-6.576,6.277,6.839v7.927h-15.053v14.742l4.723-6.576,6.277,6.827V399.8h-11v14.742l8.776-6.576,6.277,6.827v7.939H1260.15Z" transform="translate(-263.155 -129.448)"/><path class="b" d="M1257.6,419.873l-3.4-3.706,3.4-50.36,19.8-3.706,3.4,3.706V374h-15.053v14.742l7.592-3.707,3.4,3.707v8.19h-11v14.742l11.646-3.706,3.4,3.706v8.19H1257.6Z" transform="translate(-263.243 -129.448)"/><path class="c" d="M1254.1,339.9v54.079h23.2v-8.19h-15.041V371.034h11v-8.19h-11V348.1H1277.3v-8.2Z" transform="translate(-263.155 -107.26)"/><path class="c" d="M1255.618,341.418H1277.3V339.9h-23.2v54.079h1.518Z" transform="translate(-263.155 -107.26)"/><rect class="c" width="9.481" height="1.518" transform="translate(1000.618 255.584)"/><rect class="c" width="13.535" height="1.518" transform="translate(1000.618 278.529)"/><g class="f" transform="translate(991.866 233.56)"><path class="c" d="M1263.307,349.118h20.171V347.6H1261.8v52.548h1.506Z" transform="translate(-1261.8 -347.6)"/><rect class="c" width="7.963" height="1.518" transform="translate(9.661 22.932)"/><rect class="c" width="12.016" height="1.518" transform="translate(9.661 45.877)"/></g><path class="e" d="M1276.387,362.921v6.373h-15.041v16.56h10.988v6.373h-10.988v16.56h15.041v6.373h-21.378V362.91h21.378m.909-.909h-23.2v54.067h23.2v-8.19h-15.041V393.134h11v-8.19h-11V370.2h15.053V362Z" transform="translate(-263.155 -129.36)"/><path class="a" d="M696.317,434.666a15.185,15.185,0,0,1-2.929,9.661,10.631,10.631,0,0,1-5.608,3.838,15.137,15.137,0,0,1-4.532.6,12.847,12.847,0,0,1-7.939-2.367,22.472,22.472,0,0,1-5.8-6.636c-1.028-2.224.012-3.42-.155-6.3l1.518-6.8,6.193,5.775c.347,3.145,1.22,5.894,2.547,7.3.98,1.064,2.092.956,3.348.9a4.336,4.336,0,0,0,3.934-2.415,5.135,5.135,0,0,0,1.16-3.192q0-3.372-3.061-6.684c-1.614-1.53-3.766-4.065-6.983-7.114-2.7-2.618-4.866-4.711-5.99-6.791a16.272,16.272,0,0,1-1.8-7.592c0-4.914.478-10.522,3.778-13.056,2.044-1.518,5.751-.407,8.764-.407,2.905,0,.765-2.882,3.1-2.152,2.2.682,7.174,6.552,8.154,8.358a15.605,15.605,0,0,1,1.9,6.217l-7.473,1.363c-.012-.06-6.552-6.217-6.552-6.217s2.523-.407,1.136-.3a4.069,4.069,0,0,0-3.443,2.045,7.653,7.653,0,0,0-.945,3.97q0,3.707,3.192,7.544c.8.98.586.263,2.2,1.59,1.9,1.578,4.567,4.555,5.177,5.177a27.83,27.83,0,0,1,4.663,5.954,24.81,24.81,0,0,1,1.255,2.547A15.005,15.005,0,0,1,696.317,434.666Z" transform="translate(251.944 -154.99)"/><path class="b" d="M678.562,427.5a15.185,15.185,0,0,1-2.929,9.661A10.631,10.631,0,0,1,670.025,441a15.139,15.139,0,0,1-4.531.6,12.847,12.847,0,0,1-7.939-2.367,13.157,13.157,0,0,1-4.161-5.285A21.544,21.544,0,0,1,651.6,426.3l3.922-4.149,3.85,3.587q.52,4.717,2.5,6.851a4.175,4.175,0,0,0,3.36,1.518,5.059,5.059,0,0,0,4.268-2.63,6.526,6.526,0,0,0,.825-3.587,9.262,9.262,0,0,0-2.535-6.7c-1.614-1.53-4.543-3.814-7.76-6.863a31.116,31.116,0,0,1-5.739-7.03,16.27,16.27,0,0,1-1.8-7.592q0-7.371,4.962-11.179a12.29,12.29,0,0,1,7.592-2.284c2.905,0,3.7-.813,5.763.478a21.314,21.314,0,0,1,5.6,5.691,15.65,15.65,0,0,1,1.793,6.253l-7.807,1.423c-.012-.072-3.838-3.623-3.838-3.623s2.475-.9,1.937-1.554a4.022,4.022,0,0,0-3.24-1.339,3.72,3.72,0,0,0-3.408,1.985,7.653,7.653,0,0,0-.945,3.97c0,2.475,1.578,4.986,3.706,7.544a26.58,26.58,0,0,0,3.623,3.455c1.9,1.578,3.145,2.69,3.754,3.324a27.492,27.492,0,0,1,4.651,5.954,24.8,24.8,0,0,1,1.255,2.547A13,13,0,0,1,678.562,427.5Z" transform="translate(267.308 -150.48)"/><path class="c" d="M646.478,398.2a14.62,14.62,0,0,0-.466-2.284,18.349,18.349,0,0,0-.67-1.913c-.048-.12-.1-.239-.155-.359a23.418,23.418,0,0,0-1.1-2.188.421.421,0,0,0-.06-.1,23.7,23.7,0,0,0-1.483-2.272c-.562-.753-1.184-1.518-1.877-2.284-.4-.43-.8-.873-1.243-1.3-.239-.251-.574-.574-1.016-.968-.658-.6-1.542-1.351-2.654-2.284-.024-.024-.06-.048-.084-.072-.968-.8-1.793-1.53-2.463-2.2-.442-.442-.837-.861-1.16-1.255-.287-.347-.55-.693-.8-1.028a14.831,14.831,0,0,1-1.363-2.272,10.21,10.21,0,0,1-.8-2.284,9.227,9.227,0,0,1-.227-1.961,2.7,2.7,0,0,1,.012-.311,8.4,8.4,0,0,1,.347-2.284,6.213,6.213,0,0,1,.6-1.375,4.426,4.426,0,0,1,.682-.9,3.685,3.685,0,0,1,2.726-1.088,4.077,4.077,0,0,1,3,1.088,2.369,2.369,0,0,1,.239.251,7.415,7.415,0,0,1,1.172,2.021,10.95,10.95,0,0,1,.61,2.284c.048.287.084.574.12.873l4.783-.873,3.025-.55c-.048-.6-.132-1.172-.227-1.734a15.039,15.039,0,0,0-.586-2.272,14.036,14.036,0,0,0-.98-2.248c0-.012-.012-.024-.024-.036a12.247,12.247,0,0,0-1.6-2.272,10.666,10.666,0,0,0-2.284-1.925c-.2-.132-.418-.239-.622-.359a14.112,14.112,0,0,0-6.827-1.578,12.892,12.892,0,0,0-6.516,1.578,10.4,10.4,0,0,0-1.076.705,11.947,11.947,0,0,0-1.71,1.578,11.566,11.566,0,0,0-1.59,2.272,12.938,12.938,0,0,0-.957,2.284,13.66,13.66,0,0,0-.5,2.272,19.815,19.815,0,0,0-.191,2.284c0,.167-.012.323-.012.49a17.607,17.607,0,0,0,.1,1.781,17.828,17.828,0,0,0,.383,2.284,15.317,15.317,0,0,0,.753,2.272c.179.43.371.849.586,1.267.179.335.383.67.6,1.016a26.157,26.157,0,0,0,1.65,2.272c.6.729,1.267,1.5,2.021,2.284.454.478.945.968,1.459,1.471.287.275.574.538.849.8.861.825,1.674,1.578,2.4,2.284.9.849,1.7,1.6,2.4,2.272.6.562,1.124,1.064,1.59,1.507.239.263.466.514.67.777a12.268,12.268,0,0,1,1.483,2.272,8.9,8.9,0,0,1,.777,2.284,7.517,7.517,0,0,1,.132,1.363c0,.323-.012.622-.036.909a6.332,6.332,0,0,1-.562,2.284c-.072.132-.143.263-.215.383a5.937,5.937,0,0,1-1.793,1.889,4.737,4.737,0,0,1-2.475.741,4.016,4.016,0,0,1-2.5-.741,5.722,5.722,0,0,1-.873-.765,6.866,6.866,0,0,1-1.052-1.506,11.514,11.514,0,0,1-.885-2.284,18.524,18.524,0,0,1-.466-2.272c-.036-.263-.072-.526-.1-.789l-7.76.562a1.453,1.453,0,0,0,.024.227c.06.777.143,1.542.263,2.272a21.99,21.99,0,0,0,.49,2.284,19.519,19.519,0,0,0,.777,2.272c.084.2.167.406.251.6a16.022,16.022,0,0,0,.9,1.686,12.9,12.9,0,0,0,1.758,2.272,12.216,12.216,0,0,0,1.507,1.327,11.161,11.161,0,0,0,1.518.956,13.692,13.692,0,0,0,6.409,1.411,15.228,15.228,0,0,0,4.531-.61,12.454,12.454,0,0,0,2-.813,10.044,10.044,0,0,0,3-2.284c.215-.239.418-.49.61-.741a14.038,14.038,0,0,0,1-1.53,15.17,15.17,0,0,0,1.04-2.284,15.435,15.435,0,0,0,.6-2.272,17.316,17.316,0,0,0,.263-2.284c.024-.43.036-.861.024-1.3C646.538,398.875,646.514,398.54,646.478,398.2Z" transform="translate(295.482 -125.75)"/><path class="d" d="M752.776,561.106c-.6-.634-1.853-1.734-3.754-3.324-.634-.526-1.208-1.016-1.722-1.483a30.088,30.088,0,0,0,3.24,3c1.315,1.1,2.32,1.961,3.013,2.607C753.29,561.644,753.039,561.37,752.776,561.106Z" transform="translate(183.05 -300.429)"/><path class="c" d="M724.922,676.129a5.058,5.058,0,0,0,4.268-2.63,6.526,6.526,0,0,0,.825-3.587q0-3.372-3.061-6.684c-.323-.311-.693-.658-1.088-1.028a7.909,7.909,0,0,1,2.164,5.739,6.525,6.525,0,0,1-.825,3.587,5.058,5.058,0,0,1-4.268,2.63c-.861.036-1.2.263-1.937-.227a6.208,6.208,0,0,0,.55.682,4.213,4.213,0,0,0,3.372,1.518Z" transform="translate(206.206 -393.667)"/><path class="c" d="M639.3,389.748c.036.036.084.072.12.108a27.279,27.279,0,0,1-4.34-5.631,16.279,16.279,0,0,1-1.817-7.592q0-7.371,4.962-11.179a12.366,12.366,0,0,1,7.592-2.284,12.241,12.241,0,0,1,7.006,1.913,10.084,10.084,0,0,1,1.088.789,8.688,8.688,0,0,0-2.152-2.272,15.343,15.343,0,0,0-7.808-2.5,12.373,12.373,0,0,0-7.592,2.284q-4.968,3.8-4.962,11.179a18.885,18.885,0,0,0,2.152,8.154,31.671,31.671,0,0,0,5.751,7.031Z" transform="translate(285.093 -128.568)"/><path class="c" d="M630.5,705.733a21.543,21.543,0,0,1-1.794-7.652l5.572-.466c-.1-.514-.167-1.04-.227-1.614l-6.851.562a21.045,21.045,0,0,0,1.793,7.652,12.639,12.639,0,0,0,3.79,4.531,12.582,12.582,0,0,1-2.283-3.013Z" transform="translate(288.791 -423.426)"/><path class="c" d="M772.3,443.9a5.01,5.01,0,0,1,.956,3.133l1.232-.227c-.323-1.4-.406-1.172-1.148-2.068a3.647,3.647,0,0,0-1.04-.837Z" transform="translate(161.039 -201.468)"/><path class="d" d="M745.076,553.506c-.6-.634-1.853-1.734-3.754-3.324-.634-.526-1.208-1.016-1.722-1.483a30.119,30.119,0,0,0,3.24,3c1.315,1.1,2.32,1.961,3.013,2.607C745.6,554.033,745.351,553.77,745.076,553.506Z" transform="translate(189.83 -293.738)"/><path class="c" d="M717.41,668.529a5.058,5.058,0,0,0,4.268-2.63,6.525,6.525,0,0,0,.825-3.587q0-3.372-3.061-6.684c-.323-.311-.693-.658-1.088-1.028a9.619,9.619,0,0,1,2.63,6.193,6.525,6.525,0,0,1-.825,3.587,5.058,5.058,0,0,1-4.268,2.63,3.9,3.9,0,0,1-2.391-.682,6.235,6.235,0,0,0,.55.682,4.159,4.159,0,0,0,3.36,1.519Z" transform="translate(212.809 -386.976)"/><path class="c" d="M634.344,386.286c.036.036.084.072.12.108a27.28,27.28,0,0,1-4.34-5.631,16.269,16.269,0,0,1-1.8-7.592q0-7.371,4.962-11.179a12.366,12.366,0,0,1,7.592-2.284,13.808,13.808,0,0,1,7.461,1.937c.383.239.287.478.634.765a8.688,8.688,0,0,0-2.152-2.272,13.808,13.808,0,0,0-7.461-1.937,12.373,12.373,0,0,0-7.592,2.284q-4.968,3.8-4.962,11.179a16.236,16.236,0,0,0,1.805,7.592,31.381,31.381,0,0,0,5.738,7.03Z" transform="translate(289.143 -126.015)"/><path class="c" d="M622.9,698.132a21.544,21.544,0,0,1-1.793-7.652l6.48-.466c-.1-.514-.167-1.04-.227-1.614l-7.76.562a21.043,21.043,0,0,0,1.793,7.652,13.5,13.5,0,0,0,3.6,4.842,14.537,14.537,0,0,1-2.093-3.324Z" transform="translate(295.482 -416.734)"/><path class="c" d="M764.7,436.3a10.232,10.232,0,0,1,1.411,4.5l1.232-.227a8.1,8.1,0,0,0-1.6-3.431,3.607,3.607,0,0,0-1.043-.842Z" transform="translate(167.731 -194.777)"/><path class="e" d="M632.915,359.009a12.949,12.949,0,0,1,6.971,1.8,10.346,10.346,0,0,1,3.587,3.886,14.412,14.412,0,0,1,1.59,5.07l-6.038,1.1a9.657,9.657,0,0,0-1.973-4.7,4.872,4.872,0,0,0-3.934-1.662,4.642,4.642,0,0,0-4.185,2.427,8.525,8.525,0,0,0-1.076,4.436,12.823,12.823,0,0,0,3.4,8.118A28.342,28.342,0,0,0,635,383.065c1.865,1.554,3.1,2.642,3.671,3.252l.012.012.012.012a26.923,26.923,0,0,1,4.508,5.751,22.566,22.566,0,0,1,1.2,2.439,13.96,13.96,0,0,1,1.136,4.842,14.364,14.364,0,0,1-2.75,9.1h0a9.71,9.71,0,0,1-5.141,3.5,14.571,14.571,0,0,1-4.256.562A12.02,12.02,0,0,1,626,410.347a12.365,12.365,0,0,1-3.874-4.926,19.932,19.932,0,0,1-1.638-6.433l5.99-.43a11.777,11.777,0,0,0,2.618,6.492,5.075,5.075,0,0,0,3.838,1.817h.227a5.97,5.97,0,0,0,5.01-3.049,7.37,7.37,0,0,0,.968-4.077c0-2.475-1.112-4.926-3.3-7.3l-.024-.024-.024-.024q-2.421-2.3-7.234-6.851a30.064,30.064,0,0,1-5.56-6.8,15.411,15.411,0,0,1-1.71-7.174c0-4.663,1.506-8.083,4.591-10.45a11.478,11.478,0,0,1,7.042-2.1m0-.909a12.373,12.373,0,0,0-7.592,2.284q-4.968,3.8-4.962,11.179a16.235,16.235,0,0,0,1.8,7.592,30.942,30.942,0,0,0,5.739,7.03q4.824,4.573,7.246,6.863c2.044,2.212,3.061,4.448,3.061,6.684a6.525,6.525,0,0,1-.825,3.587,5.058,5.058,0,0,1-4.268,2.63h-.191a4.181,4.181,0,0,1-3.168-1.518c-1.327-1.411-2.152-3.7-2.5-6.851l-7.76.562A21.041,21.041,0,0,0,621.3,405.8a13.317,13.317,0,0,0,4.161,5.285,12.831,12.831,0,0,0,7.939,2.367,15.226,15.226,0,0,0,4.531-.61,10.5,10.5,0,0,0,5.6-3.84,15.248,15.248,0,0,0,2.929-9.661,14.719,14.719,0,0,0-1.208-5.177A20.688,20.688,0,0,0,644,391.614a27.817,27.817,0,0,0-4.651-5.954c-.6-.634-1.853-1.734-3.754-3.324a26.574,26.574,0,0,1-3.623-3.455q-3.192-3.838-3.192-7.544a7.653,7.653,0,0,1,.945-3.97,3.72,3.72,0,0,1,3.408-1.985,3.945,3.945,0,0,1,3.228,1.339,9.438,9.438,0,0,1,1.9,5.177l7.807-1.423a15.689,15.689,0,0,0-1.793-6.253,11.157,11.157,0,0,0-3.9-4.221,14.119,14.119,0,0,0-7.46-1.9Z" transform="translate(295.57 -125.926)"/><path class="e" d="M1509.6,898.8h5.273v16.344h7.006V898.8h5.273v38.057h-5.273V919.568h-7.006v17.289H1509.6Z" transform="translate(-488.106 -601.978)"/><path class="e" d="M1678.9,906.12c0-5.321,1.734-10.019,8.907-10.019,6.8,0,8.955,3.527,8.955,9.434v19.25c0,5.321-1.734,10.019-8.955,10.019-6.743,0-8.907-3.527-8.907-9.434Zm5.273,19.561c0,3.264,1.471,5.01,3.635,5.01,2.212,0,3.695-1.734,3.695-5.01V905.7c0-3.742-1.267-5.476-3.695-5.476-2.367,0-3.635,1.734-3.635,5.476Z" transform="translate(-637.164 -599.601)"/><path class="e" d="M1850.812,898.8h8.692c7.174,0,8.537,1.949,8.537,10.749s-1.375,10.749-8.537,10.749h-3.431v16.548H1850.8V898.8Zm5.261,17.074h2.738c3.587,0,3.958-.574,3.958-6.325s-.371-6.325-3.958-6.325h-2.738Z" transform="translate(-788.511 -601.978)"/><path class="e" d="M2013.5,898.8h14.336v4.424h-9.063v11.909h8.537v4.424h-8.537v12.865h9.063v4.424H2013.5Z" transform="translate(-931.758 -601.978)"/><path class="e" d="M268.841,769.831c.8.466.933,1.387.538,2.607h0c-.383,1.219-1.291,2.116-2.32,1.459a11.745,11.745,0,0,1-5.2-12.291,4.766,4.766,0,0,1,1.949-3.061h0c.634-.251.8.5.634,1.626a9.273,9.273,0,0,0,4.4,9.66Z" transform="translate(610.658 -478.449)"/><path class="e" d="M351.315,865.086c-.825-.729-1.758.012-2.188,1.315h0c-.442,1.3-.311,2.475.418,2.941a14.549,14.549,0,0,1,5.93,8.884c.275,1.052.7,1.71,1.112,1.363h0a4.369,4.369,0,0,0,.586-3.037A18.115,18.115,0,0,0,351.315,865.086Z" transform="translate(533.84 -572.043)"/><path class="e" d="M337.76,790.591c-1.471,1.65-3.671,1.925-4.926.622s-1.076-3.7.383-5.345,3.671-1.925,4.926-.622S339.219,788.941,337.76,790.591Z" transform="translate(548.698 -501.278)"/><path class="e" d="M292.52,959.955a20.1,20.1,0,0,1-9.72-1.255,21.752,21.752,0,0,0,7.951,18.807,1.535,1.535,0,0,0,1.662.311.818.818,0,0,0,.2-.992,19.171,19.171,0,0,1-5.572-10.271c-.227-1.315.132-2.427.586-2.475s1.052.873,1.495,1.985A17.137,17.137,0,0,0,295.33,974a.927.927,0,0,0,.933-.383,1.076,1.076,0,0,0-.155-1.255A13.609,13.609,0,0,1,292.52,959.955Z" transform="translate(592.097 -654.716)"/><path class="e" d="M289.747,870.7a11.745,11.745,0,0,1-8.908-3.037.64.64,0,0,1-.227-.622c.717-3.91,1.052-7.592,2.487-11.634.5-1.375,1.447-2.666,2.068-2.75a8.063,8.063,0,0,1,5.739,1.459,3.79,3.79,0,0,1,.933,3.156c-.395,2.4-1.853-.132-1.04,12.614a.668.668,0,0,1-.359.622C290.129,870.662,290.751,870.626,289.747,870.7Z" transform="translate(593.95 -561.286)"/><path class="e" d="M257.363,386.988c.263-.048.526-.108.789-.155-6.827-22.6,6.158-33.335-.67-55.932-.371.072-.753.143-1.124.227C263.3,353.7,250.428,364.414,257.363,386.988Z" transform="translate(616.278 -101.979)"/><circle class="h" cx="15.747" cy="15.747" r="15.747" transform="translate(852.06 195.695)"/><path class="h" d="M248.5,294.7l3.037-.693-1.124-1.3-1.459.335Z" transform="translate(622.212 -65.704)"/><path class="e" d="M9.9,22.1h5.165V55.052h8.68v4.34H9.9Z" transform="translate(832.284 169.9)"/><path class="e" d="M298.9,22.1h5.165l5.368,29.64h.108L314.91,22.1h5.165l-7.592,37.292h-5.99Z" transform="translate(577.838 169.9)"/><path class="e" d="M495.4,22.1h14.049v4.34h-8.884V38.11h8.37v4.34h-8.37v12.6h8.884v4.34H495.4Z" transform="translate(404.832 169.9)"/><path class="i" d="M234.11,81.372c3.2,2.236,3.109,4.89,3.109,4.89a11.944,11.944,0,0,0-3.718-4.137A10.494,10.494,0,0,0,228,79.9S230.738,79.016,234.11,81.372Z" transform="translate(640.261 119.153)"/></g></svg>